<svg width="578" height="417" viewBox="0 0 578 417" fill="none" xmlns="http://www.w3.org/2000/svg">
<path style="mix-blend-mode:multiply" opacity="0.3" d="M497.767 74.0691C503.939 74.0691 509.786 74.9625 514.74 76.5056C519.045 70.8205 529.684 66.7598 542.11 66.7598C558.353 66.7598 571.51 73.5818 571.51 82.0282C571.51 90.4745 558.353 97.2966 542.11 97.2966C538.049 97.2966 534.07 96.8905 530.577 96.0783C527.166 104.119 513.766 110.129 497.767 110.129C479.168 110.129 464.144 102.007 464.144 92.0988C464.144 82.1094 479.168 74.0691 497.767 74.0691Z" fill="url(#paint0_radial_0_74)"/>
<path d="M519.775 87.8764C531.389 94.536 550.231 94.4548 561.845 87.714C573.459 80.9731 573.377 70.0903 561.764 63.4307C550.15 56.7711 531.308 56.8523 519.694 63.5931C508.08 70.334 508.162 81.1356 519.775 87.8764Z" fill="#1D60FF"/>
<path d="M519.775 83.6538C531.389 90.3134 550.231 90.3134 561.845 83.5726C573.377 76.8317 573.377 65.9489 561.763 59.2893C550.15 52.6297 531.308 52.6297 519.694 59.3705C508.08 66.1114 508.161 76.9942 519.775 83.6538Z" fill="#5989FF"/>
<path d="M540.81 84.4663C547.226 84.3851 553.48 82.9232 558.028 80.3244C562.17 77.8879 564.606 74.6393 564.606 71.3907C564.606 68.1421 562.17 64.9747 557.947 62.5383C553.48 59.9394 547.145 58.4775 540.729 58.4775C534.313 58.4775 527.978 60.0206 523.511 62.6195C519.288 65.056 516.933 68.3046 516.933 71.5532C516.933 74.7205 519.369 77.9691 523.511 80.4056C528.059 83.0045 534.313 84.4663 540.81 84.4663Z" fill="#454BFF"/>
<path d="M563.307 72.7714C563.307 69.5228 560.87 66.3554 556.728 63.919C552.18 61.3201 545.927 59.8582 539.43 59.8582C533.014 59.8582 526.76 61.4013 522.212 64.0001C520.967 64.7582 519.884 65.5703 518.963 66.4366C520.019 65.0559 521.562 63.7565 523.511 62.6195C527.978 60.0206 534.313 58.4775 540.729 58.4775C547.145 58.4775 553.48 59.9394 557.947 62.5383C562.17 64.9747 564.606 68.1421 564.606 71.3907C564.606 73.6647 563.388 75.8575 561.276 77.8879C562.576 76.2636 563.307 74.4769 563.307 72.7714Z" fill="#234FD9"/>
<path fill-rule="evenodd" clip-rule="evenodd" d="M549.094 79.1864L552.424 81.4604L554.779 79.9173L551.611 77.8057C553.723 76.2626 554.941 74.3947 554.941 73.014V72.0395L550.474 71.6334C550.393 72.8516 549.419 74.2322 547.876 75.3693L543.409 72.3643C545.439 70.5776 547.307 68.5472 543.815 66.3544C541.297 64.8113 537.399 64.2428 533.176 65.6235L530.739 63.918L528.14 63.9992V64.9738L530.577 66.5981C529.034 67.4102 526.435 68.9533 526.435 68.9533V69.9279L530.739 71.471C531.47 70.3339 532.445 69.3594 533.663 68.7096L537.805 71.5522C535.531 73.4201 533.094 75.7754 536.83 78.5367C539.754 80.7295 544.465 81.298 549.094 79.1864ZM539.754 69.9279L536.262 67.6538C537.886 67.2478 539.104 67.4914 539.835 67.9787C540.729 68.5472 540.485 69.1969 539.754 69.9279ZM541.541 76.4251C540.647 75.7753 540.891 74.9632 541.622 74.151L545.358 76.6687C543.734 77.156 542.434 76.9936 541.541 76.4251Z" fill="#0248C2"/>
<path fill-rule="evenodd" clip-rule="evenodd" d="M549.094 78.2928L552.342 80.4856L554.779 78.9426L551.611 76.831C553.723 75.2879 554.941 73.5011 554.941 72.0393L550.474 70.6586C550.393 71.8768 549.419 73.2575 547.876 74.3945L543.409 71.3895C545.439 69.6028 547.307 67.5725 543.815 65.4609C541.297 63.8366 537.399 63.3493 533.176 64.6487L530.739 63.0244L528.14 63.999L530.577 65.6233C528.709 66.5979 527.166 67.7349 526.435 68.9531L530.739 70.4962C531.47 69.3592 532.445 68.4658 533.663 67.7349L537.805 70.5774C535.531 72.4453 533.013 74.8818 536.83 77.6431C539.754 79.7547 544.464 80.4044 549.094 78.2928ZM539.673 68.9531L536.262 66.6791C537.886 66.273 539.023 66.5167 539.835 67.0039C540.729 67.5724 540.404 68.2222 539.673 68.9531ZM541.541 75.4503C540.647 74.8006 540.891 74.0696 541.622 73.1763L545.358 75.694C543.734 76.2625 542.434 76.0188 541.541 75.4503Z" fill="#296BFF"/>
<path d="M519.776 81.2172C531.389 87.8769 550.231 87.7956 561.845 81.0548C573.377 74.3139 573.377 63.5124 561.764 56.7715C550.15 50.1119 531.308 50.1931 519.694 56.934C508.081 63.6748 508.162 74.5576 519.776 81.2172Z" fill="#1D60FF"/>
<path d="M519.776 76.9936C531.39 83.6533 550.231 83.6533 561.764 76.9124C573.378 70.1716 573.378 59.2888 561.764 52.6291C550.15 45.9695 531.308 45.9695 519.695 52.7104C508.081 59.4512 508.081 70.334 519.776 76.9936Z" fill="#5989FF"/>
<path d="M540.81 77.8062C547.226 77.8062 553.48 76.2631 558.028 73.6642C562.17 71.2278 564.606 67.9792 564.606 64.7306C564.525 61.5632 562.17 58.3146 557.947 55.8781C553.48 53.2793 547.145 51.8174 540.729 51.8174C534.232 51.8986 527.978 53.3605 523.511 55.9594C519.288 58.3958 516.933 61.6444 516.933 64.893C516.933 68.1416 519.369 71.309 523.511 73.7454C528.059 76.3443 534.313 77.8062 540.81 77.8062Z" fill="#454BFF"/>
<path d="M563.307 66.1112C563.307 62.9438 560.87 59.6952 556.647 57.2588C552.18 54.6599 545.845 53.198 539.43 53.198C533.014 53.2793 526.679 54.7411 522.212 57.34C520.912 58.098 519.803 58.9102 518.882 59.7765C520.019 58.3958 521.562 57.0964 523.511 55.9594C527.978 53.3605 534.232 51.8986 540.729 51.8174C547.145 51.8174 553.48 53.2793 557.947 55.8781C562.17 58.3146 564.525 61.5632 564.606 64.7306C564.606 67.0046 563.388 69.2786 561.276 71.2278C562.576 69.6035 563.307 67.898 563.307 66.1112Z" fill="#234FD9"/>
<path fill-rule="evenodd" clip-rule="evenodd" d="M549.013 72.6082L552.343 74.8011L554.779 73.258L551.612 71.1464C553.724 69.6033 554.942 67.8166 554.942 66.3547V65.3801L550.475 64.974C550.312 66.1923 549.419 67.5729 547.876 68.7099L543.409 65.705C545.358 63.9182 547.308 61.8879 543.815 59.6951C541.298 58.152 537.399 57.5835 533.176 58.9641L530.658 57.3398H528.141V58.3144L530.577 59.9387C528.953 60.7509 526.354 62.3752 526.354 62.3752V63.2685L530.74 64.8116C531.471 63.6746 532.445 62.7812 533.663 62.0503L537.805 64.8928C535.531 66.7608 533.014 69.1972 536.831 71.9585C539.673 74.0701 544.384 74.7198 549.013 72.6082ZM539.673 63.2685L536.262 60.9945C537.887 60.5884 539.024 60.8321 539.836 61.3194C540.729 61.8879 540.404 62.5376 539.673 63.2685ZM541.541 69.7657C540.648 69.116 540.892 68.3039 541.541 67.4917L545.277 70.0094C543.734 70.5779 542.435 70.3342 541.541 69.7657Z" fill="#0248C2"/>
<path fill-rule="evenodd" clip-rule="evenodd" d="M549.013 71.6327L552.342 73.9067L554.779 72.2824L551.611 70.1708C553.723 68.6277 554.941 66.841 554.941 65.3791L550.474 63.9985C550.312 65.2167 549.419 66.6786 547.876 67.7344L543.409 64.8106C545.358 62.9427 547.307 60.9935 543.734 58.8007C541.297 57.2576 537.399 56.6891 533.176 57.9886L530.658 56.3643L528.14 57.3388L530.577 59.0444C528.709 59.9377 527.166 61.0747 526.354 62.3742L530.739 63.836C531.47 62.699 532.445 61.8057 533.663 61.1559L537.805 63.9173C535.531 65.8664 533.013 68.2216 536.83 70.983C539.673 73.0945 544.383 73.7443 549.013 71.6327ZM539.673 62.293L536.262 60.0189C537.805 59.6129 539.023 59.8565 539.835 60.3438C540.729 60.9123 540.404 61.562 539.673 62.293ZM541.541 68.7902C540.647 68.1404 540.891 67.4095 541.541 66.5161L545.277 69.0338C543.734 69.6023 542.434 69.4399 541.541 68.7902Z" fill="#296BFF"/>
<path d="M519.776 74.5561C531.389 81.2158 550.231 81.2158 561.764 74.4749C573.378 67.7341 573.378 56.8513 561.764 50.1916C550.069 43.532 531.308 43.532 519.694 50.2729C508.081 57.0137 508.081 67.8965 519.776 74.5561Z" fill="#1D60FF"/>
<path d="M519.694 70.3334C531.389 77.0743 550.15 76.9931 561.764 70.2522C573.377 63.5114 573.377 52.6286 561.764 45.9689C550.069 39.3093 531.227 39.3905 519.694 46.0502C508.081 52.791 508.081 63.6738 519.694 70.3334Z" fill="#5989FF"/>
<path d="M540.729 71.145C547.227 71.145 553.48 69.6019 557.947 67.003C562.17 64.5666 564.525 61.318 564.525 58.1506C564.525 54.902 562.17 51.6534 557.947 49.217C553.399 46.6993 547.145 45.1562 540.729 45.2374C534.232 45.2374 527.979 46.6993 523.431 49.3794C519.289 51.7346 516.852 54.9832 516.933 58.2318C516.933 61.4804 519.289 64.729 523.512 67.0843C528.06 69.6831 534.313 71.145 540.729 71.145Z" fill="#454BFF"/>
<path d="M563.307 59.5312C563.226 56.2826 560.871 53.034 556.647 50.5976C552.181 48.0799 545.846 46.5369 539.43 46.6181C532.933 46.6181 526.679 48.0799 522.212 50.6788C520.913 51.4368 519.803 52.249 518.882 53.1153C520.02 51.7346 521.563 50.4352 523.431 49.3794C527.979 46.6993 534.232 45.2374 540.729 45.2374C547.145 45.1562 553.399 46.6993 557.947 49.217C562.17 51.6534 564.525 54.902 564.525 58.1506C564.525 60.3434 563.388 62.6174 561.277 64.5666C562.576 62.9423 563.307 61.2368 563.307 59.5312Z" fill="#234FD9"/>
<path fill-rule="evenodd" clip-rule="evenodd" d="M549.013 65.9501L552.343 68.2241L554.779 66.5998L551.531 64.4882C553.723 62.9451 554.942 61.1584 554.942 59.6965V58.7219L550.475 58.3158C550.312 59.5341 549.419 60.9959 547.876 62.0517L543.409 59.128C545.358 57.26 547.226 55.3109 543.734 53.1181C541.298 51.575 537.399 51.0065 533.176 52.3059L530.658 50.6816H528.059V51.6562L530.577 53.3617C528.953 54.0927 526.354 55.717 526.354 55.717V56.6915L530.74 58.1534C531.471 57.0164 532.445 56.1231 533.582 55.3921L537.805 58.2346C535.45 60.1838 533.014 62.539 536.749 65.3003C539.673 67.4119 544.384 68.0617 549.013 65.9501ZM539.673 56.6103L536.262 54.3363C537.805 53.9302 539.024 54.1739 539.836 54.6612C540.648 55.2297 540.404 55.8794 539.673 56.6103ZM541.541 63.1075C540.567 62.4578 540.81 61.7269 541.541 60.8335L545.277 63.3512C543.734 63.9197 542.435 63.7573 541.541 63.1075Z" fill="#0248C2"/>
<path fill-rule="evenodd" clip-rule="evenodd" d="M549.013 64.9735L552.343 67.2475L554.779 65.6232L551.531 63.5116C553.724 62.0498 554.942 60.1818 554.942 58.7199L550.475 57.3393C550.313 58.6387 549.419 60.0194 547.876 61.0752L543.409 58.1514C545.359 56.3647 547.226 54.3343 543.734 52.1415C541.217 50.5984 537.399 50.0299 533.176 51.3294L530.659 49.7051L528.06 50.6796L530.496 52.3852C528.709 53.2785 527.085 54.4968 526.354 55.715L530.74 57.1768C531.471 56.0398 532.445 55.1465 533.582 54.4968L537.806 57.3393C535.45 59.2072 533.014 61.5625 536.75 64.3238C539.673 66.4354 544.384 67.0851 549.013 64.9735ZM539.673 55.715L536.262 53.3598C537.806 53.0349 539.024 53.1973 539.836 53.7658C540.648 54.2531 540.404 54.9028 539.673 55.715ZM541.541 62.131C540.567 61.4812 540.81 60.7503 541.541 59.8569L545.277 62.4558C543.734 62.9431 542.435 62.7807 541.541 62.131Z" fill="#296BFF"/>
<path d="M519.695 67.8979C531.39 74.5576 550.15 74.5576 561.764 67.8167C573.378 61.0759 573.378 50.1931 561.683 43.5334C550.069 36.8738 531.227 36.8738 519.695 43.6147C508.081 50.3555 508.081 61.2383 519.695 67.8979Z" fill="#1D60FF"/>
<path d="M519.694 63.7553C531.308 70.4149 550.15 70.3337 561.764 63.5929C573.378 56.852 573.296 46.0504 561.683 39.3096C550.069 32.65 531.227 32.7312 519.613 39.472C508.081 46.2129 508.081 57.0145 519.694 63.7553Z" fill="#5989FF"/>
<path d="M540.729 64.4876C547.227 64.4876 553.48 63.0258 557.947 60.3457C562.17 57.9092 564.525 54.7419 564.525 51.4933C564.525 48.2447 562.089 44.9961 557.947 42.6408C553.399 40.0419 547.145 38.5801 540.648 38.5801C534.232 38.5801 527.979 40.1232 523.431 42.722C519.289 45.1585 516.852 48.4071 516.852 51.5745C516.852 54.8231 519.289 58.0717 523.512 60.4269C527.979 63.0258 534.313 64.5689 540.729 64.4876Z" fill="#1D60FF"/>
<path d="M563.226 52.8739C563.226 49.6253 560.871 46.3767 556.648 44.0215C552.1 41.4226 545.846 39.9607 539.43 39.9607C532.933 39.9607 526.679 41.5038 522.131 44.1027C520.886 44.8607 519.803 45.6728 518.883 46.5391C520.02 45.1585 521.482 43.8591 523.431 42.722C527.979 40.1232 534.232 38.5801 540.648 38.5801C547.145 38.5801 553.399 40.0419 557.947 42.6408C562.089 44.9961 564.525 48.2447 564.525 51.4933C564.525 53.6861 563.388 55.9601 561.277 57.9092C562.576 56.3661 563.226 54.5794 563.226 52.8739Z" fill="#234FD9"/>
<path fill-rule="evenodd" clip-rule="evenodd" d="M549.013 59.2909L552.343 61.5649L554.779 59.9406L551.531 57.829C553.642 56.3671 554.942 54.4992 554.942 53.0373V52.0627L550.475 51.6567C550.312 52.9561 549.419 54.3368 547.876 55.3926L543.409 52.4688C545.358 50.6821 547.226 48.6517 543.734 46.4589C541.216 44.9158 537.399 44.3473 533.176 45.6468L530.658 44.0225L528.06 44.1037V44.997L530.496 46.7025C528.953 47.4335 526.354 49.0578 526.354 49.0578V50.0324L530.74 51.4942C531.389 50.3572 532.445 49.4639 533.582 48.8141L537.724 51.6567C535.45 53.5246 533.014 55.8798 536.75 58.6412C539.673 60.7527 544.384 61.4025 549.013 59.2909ZM539.673 49.9511L536.262 47.6771C537.805 47.3523 539.024 47.5147 539.836 48.0832C540.648 48.5705 540.404 49.2202 539.673 49.9511ZM541.541 56.4483C540.567 55.7986 540.81 55.0677 541.541 54.1743L545.277 56.7732C543.653 57.2605 542.435 57.0981 541.541 56.4483Z" fill="#0248C2"/>
<path fill-rule="evenodd" clip-rule="evenodd" d="M549.013 58.3153L552.343 60.5893L554.779 59.0462L551.531 56.9346C553.642 55.3916 554.942 53.5236 554.942 52.0617L550.475 50.7623C550.312 51.9805 549.338 53.3612 547.876 54.4982L543.409 51.4932C545.358 49.7065 547.226 47.6761 543.734 45.4833C541.216 43.9402 537.399 43.3717 533.095 44.7524L530.658 43.0469L528.06 44.1027L530.496 45.727C528.628 46.7015 527.085 47.8386 526.354 49.0568L530.74 50.5187C531.389 49.4629 532.445 48.4883 533.582 47.8386L537.724 50.6811C535.45 52.549 533.014 54.9043 536.75 57.6656C539.673 59.7772 544.384 60.4269 549.013 58.3153ZM539.673 49.0568L536.181 46.7828C537.805 46.3767 539.024 46.6203 539.836 47.1076C540.648 47.6761 540.404 48.3258 539.673 49.0568ZM541.541 55.554C540.567 54.9043 540.81 54.0921 541.541 53.28L545.277 55.7976C543.653 56.2849 542.435 56.1225 541.541 55.554Z" fill="#296BFF"/>
<path d="M474.457 100.305C486.071 106.965 504.913 106.965 516.445 100.224C528.059 93.4831 528.059 82.6003 516.445 75.9407C504.751 69.281 485.99 69.281 474.376 76.0219C462.762 82.7627 462.762 93.6455 474.457 100.305Z" fill="#1D60FF"/>
<path d="M474.376 96.1625C486.071 102.822 504.832 102.741 516.445 96.0001C528.059 89.2593 528.059 78.4577 516.364 71.7168C504.75 65.0572 485.909 65.1384 474.376 71.8793C462.762 78.6201 462.762 89.4217 474.376 96.1625Z" fill="#5989FF"/>
<path d="M495.411 96.8949C501.908 96.8949 508.161 95.3518 512.628 92.7529C516.851 90.3165 519.207 87.0679 519.207 83.9005C519.207 80.6519 516.851 77.4033 512.628 75.0481C508.08 72.4492 501.827 70.9873 495.411 70.9873C488.913 70.9873 482.66 72.4492 478.112 75.1293C473.97 77.5657 471.533 80.7331 471.533 83.9817C471.615 87.2303 473.97 90.4789 478.193 92.8341C482.741 95.433 488.995 96.8949 495.411 96.8949Z" fill="#454BFF"/>
<path d="M517.988 85.2811C517.907 82.0325 515.552 78.784 511.329 76.4287C506.781 73.8298 500.527 72.2868 494.111 72.368C487.614 72.368 481.36 73.8298 476.894 76.5099C475.594 77.2138 474.484 78.0259 473.564 78.9464C474.701 77.4845 476.244 76.1851 478.112 75.1293C482.66 72.4492 488.913 70.9873 495.411 70.9873C501.827 70.9873 508.08 72.4492 512.628 75.0481C516.851 77.4033 519.207 80.6519 519.207 83.9005C519.207 86.0933 518.07 88.3673 515.958 90.3165C517.257 88.6922 517.988 86.9867 517.988 85.2811Z" fill="#234FD9"/>
<path fill-rule="evenodd" clip-rule="evenodd" d="M503.694 91.6942L507.024 93.9682L509.461 92.3439L506.212 90.2323C508.405 88.6892 509.623 86.9025 509.623 85.4406V84.4661L505.156 84.06C504.994 85.2782 504.1 86.7401 502.557 87.7959L498.091 84.8721C500.04 83.0042 501.908 81.055 498.415 78.8622C495.898 77.3191 492.081 76.7506 487.857 78.0501L485.34 76.4258L482.741 76.507V77.4003L485.177 79.1059C483.634 79.8368 481.035 81.4611 481.035 81.4611V82.4357L485.421 83.8975C486.152 82.7605 487.127 81.8672 488.264 81.2175L492.487 83.9788C490.131 85.9279 487.695 88.2832 491.431 91.0445C494.355 93.1561 499.065 93.8058 503.694 91.6942ZM494.355 82.3545L490.944 80.0805C492.487 79.6744 493.705 79.918 494.517 80.4865C495.329 80.9738 495.086 81.6235 494.355 82.3545ZM496.223 88.8517C495.248 88.2019 495.492 87.471 496.223 86.5777L499.959 89.1765C498.415 89.6638 497.116 89.5014 496.223 88.8517Z" fill="#0248C2"/>
<path fill-rule="evenodd" clip-rule="evenodd" d="M503.694 90.7206L507.024 92.9946L509.461 91.4515L506.212 89.3399C508.405 87.7968 509.623 85.9289 509.623 84.467L505.156 83.0863C504.994 84.3858 504.101 85.7664 502.557 86.8222L498.091 83.8985C500.04 82.1118 501.908 80.0814 498.416 77.8886C495.898 76.3455 492.081 75.777 487.858 77.0764L485.34 75.4521L482.741 76.508L485.177 78.1323C483.31 79.0256 481.766 80.2438 481.036 81.4621L485.421 82.9239C486.152 81.7869 487.127 80.8935 488.264 80.2438L492.487 83.0863C490.132 84.9543 487.695 87.3095 491.431 90.0708C494.355 92.1824 499.065 92.8322 503.694 90.7206ZM494.355 81.4621L490.944 79.188C492.487 78.782 493.705 78.9444 494.517 79.5129C495.329 80.0814 495.086 80.7311 494.355 81.4621ZM496.223 87.8781C495.248 87.2283 495.492 86.4974 496.223 85.6852L499.959 88.2029C498.416 88.6902 497.116 88.5278 496.223 87.8781Z" fill="#296BFF"/>
<path d="M474.377 93.643C486.072 100.384 504.832 100.303 516.446 93.5618C528.06 86.821 528.06 75.9381 516.365 69.2785C504.751 62.6189 485.909 62.7001 474.377 69.3597C462.763 76.1006 462.763 86.9834 474.377 93.643Z" fill="#1D60FF"/>
<path d="M474.377 89.5018C485.991 96.1614 504.832 96.0802 516.446 89.3393C528.06 82.6797 527.979 71.7969 516.365 65.1373C504.751 58.3964 485.909 58.4776 474.296 65.2185C462.763 71.9593 462.763 82.8422 474.377 89.5018Z" fill="#5989FF"/>
<path d="M495.412 90.2328C501.828 90.2328 508.162 88.7709 512.629 86.0908C516.852 83.7356 519.208 80.487 519.208 77.2384C519.208 73.9898 516.771 70.7412 512.629 68.3859C508.081 65.7871 501.828 64.3252 495.33 64.3252C488.914 64.3252 482.661 65.8683 478.113 68.4671C473.971 70.9036 471.534 74.1522 471.534 77.3196C471.534 80.5682 473.971 83.8168 478.194 86.2532C482.661 88.7709 488.996 90.314 495.412 90.2328Z" fill="#454BFF"/>
<path d="M517.908 78.619C517.908 75.3704 515.553 72.1218 511.33 69.7666C506.782 67.1677 500.528 65.7058 494.112 65.7058C487.615 65.7058 481.361 67.2489 476.813 69.8478C475.568 70.6058 474.485 71.418 473.565 72.2843C474.702 70.9036 476.164 69.6041 478.113 68.4671C482.661 65.8683 488.914 64.3252 495.33 64.3252C501.828 64.3252 508.081 65.7871 512.629 68.3859C516.771 70.7412 519.208 73.9898 519.208 77.2384C519.208 79.5124 518.071 81.7052 515.959 83.7356C517.258 82.1113 517.908 80.3245 517.908 78.619Z" fill="#234FD9"/>
<path fill-rule="evenodd" clip-rule="evenodd" d="M503.696 85.038L507.026 87.312L509.381 85.7689L506.213 83.5761C508.325 82.1142 509.624 80.2463 509.624 78.7844V77.891L505.158 77.4037C504.995 78.7032 504.021 80.0838 502.559 81.1396L498.092 78.2159C500.041 76.4292 501.909 74.3988 498.417 72.206C495.899 70.6629 492.082 70.0944 487.778 71.3938L485.341 69.7695L482.742 69.8508V70.7441L485.179 72.4496C483.636 73.2618 481.037 74.8049 481.037 74.8049V75.7794L485.422 77.2413C486.072 76.1043 487.128 75.2109 488.265 74.5612L492.407 77.4037C490.133 79.2717 487.696 81.6269 491.432 84.3882C494.356 86.4998 499.066 87.1495 503.696 85.038ZM494.356 75.7794L490.864 73.5054C492.488 73.0993 493.706 73.2618 494.518 73.8303C495.331 74.3988 495.087 74.9673 494.356 75.7794ZM496.224 82.1954C495.249 81.5457 495.493 80.8148 496.224 79.9214L499.96 82.5203C498.336 83.0076 497.117 82.8452 496.224 82.1954Z" fill="#0248C2"/>
<path fill-rule="evenodd" clip-rule="evenodd" d="M503.695 84.0614L507.025 86.3354L509.381 84.7923L506.213 82.6807C508.325 81.1376 509.624 79.2697 509.624 77.889L505.157 76.5084C504.995 77.7266 504.02 79.1072 502.558 80.2443L498.092 77.2393C500.041 75.4526 501.909 73.4222 498.416 71.2294C495.899 69.6863 492.082 69.1178 487.777 70.4985L485.341 68.793L482.742 69.8488L485.178 71.4731C483.311 72.4476 481.767 73.5846 481.036 74.8029L485.422 76.346C486.072 75.2089 487.128 74.2344 488.265 73.5846L492.407 76.4272C490.133 78.2951 487.696 80.6504 491.432 83.4117C494.356 85.6045 499.066 86.173 503.695 84.0614ZM494.356 74.8029L490.864 72.5288C492.488 72.1228 493.706 72.3664 494.518 72.8537C495.33 73.4222 495.087 74.0719 494.356 74.8029ZM496.224 81.3001C495.249 80.6503 495.493 79.8382 496.224 79.026L499.96 81.5437C498.335 82.031 497.036 81.8686 496.224 81.3001Z" fill="#296BFF"/>
<path d="M474.376 87.0649C485.99 93.7245 504.832 93.6433 516.446 86.9025C528.059 80.1616 527.978 69.36 516.364 62.6192C504.751 55.9596 485.909 56.0408 474.295 62.7816C462.763 69.5224 462.763 80.3241 474.376 87.0649Z" fill="#1D60FF"/>
<path d="M474.376 82.8413C485.99 89.5009 504.832 89.5009 516.446 82.7601C528.059 76.0192 527.978 65.1364 516.364 58.4768C504.751 51.8172 485.909 51.8172 474.295 58.558C462.681 65.2989 462.763 76.1817 474.376 82.8413Z" fill="#5989FF"/>
<path d="M495.411 83.6538C501.827 83.5726 508.162 82.1107 512.629 79.5119C516.852 77.0754 519.207 73.8268 519.207 70.5782C519.207 67.3296 516.771 64.1622 512.547 61.7258C508.081 59.1269 501.746 57.665 495.33 57.665C488.914 57.665 482.579 59.2081 478.112 61.807C473.889 64.2435 471.534 67.4921 471.534 70.7407C471.534 73.908 473.97 77.1566 478.193 79.5931C482.66 82.192 488.995 83.6538 495.411 83.6538Z" fill="#454BFF"/>
<path d="M517.908 71.9589C517.908 68.7103 515.471 65.5429 511.329 63.1065C506.781 60.5076 500.528 59.0457 494.03 59.0457C487.614 59.0457 481.361 60.5888 476.813 63.1876C475.568 63.9457 474.485 64.7578 473.564 65.6241C474.62 64.2434 476.163 62.944 478.112 61.807C482.579 59.2081 488.914 57.665 495.33 57.665C501.746 57.665 508.081 59.1269 512.547 61.7258C516.771 64.1622 519.207 67.3296 519.207 70.5782C519.207 72.8522 517.989 75.045 515.877 77.0754C517.177 75.4511 517.908 73.6644 517.908 71.9589Z" fill="#234FD9"/>
<path fill-rule="evenodd" clip-rule="evenodd" d="M503.695 78.3748L507.025 80.6489L509.38 79.1058L506.212 76.9942C508.324 75.4511 509.542 73.5832 509.542 72.2025V71.2279L505.075 70.8219C504.994 72.0401 504.02 73.4207 502.558 74.5577L498.091 71.5528C500.04 69.7661 501.908 67.7357 498.416 65.5429C495.898 63.9998 492.081 63.4313 487.777 64.8119L485.34 63.1064L482.741 63.1876V64.1622L485.178 65.7865C483.635 66.5987 481.036 68.1418 481.036 68.1418V69.1163L485.34 70.6594C486.071 69.5224 487.046 68.5478 488.264 67.8981L492.406 70.7406C490.132 72.6086 487.695 74.9638 491.431 77.7251C494.355 79.9179 499.066 80.4864 503.695 78.3748ZM494.355 69.1163L490.863 66.8423C492.487 66.4362 493.705 66.6799 494.436 67.1672C495.33 67.7357 495.086 68.3854 494.355 69.1163ZM496.223 75.6135C495.248 74.9638 495.492 74.1517 496.223 73.3395L499.959 75.8572C498.335 76.3445 497.035 76.182 496.223 75.6135Z" fill="#0248C2"/>
<path fill-rule="evenodd" clip-rule="evenodd" d="M503.695 77.4823L507.025 79.6751L509.38 78.132L506.213 76.0204C508.324 74.4773 509.542 72.6906 509.542 71.2287L505.076 69.8481C504.994 71.0663 504.02 72.447 502.558 73.584L498.091 70.6602C500.04 68.7923 501.908 66.7619 498.416 64.6503C495.898 63.026 492.081 62.5387 487.777 63.8382L485.34 62.2139L482.741 63.1884L485.178 64.894C483.31 65.7873 481.767 66.9243 481.036 68.1425L485.34 69.6856C486.071 68.5486 487.046 67.6553 488.264 66.9243L492.406 69.7668C490.132 71.6348 487.696 74.0713 491.431 76.8326C494.355 78.9441 499.066 79.5939 503.695 77.4823ZM494.355 68.1425L490.863 65.8685C492.487 65.4625 493.705 65.7061 494.436 66.1934C495.33 66.7619 495.086 67.4116 494.355 68.1425ZM496.142 74.6397C495.249 73.99 495.492 73.2591 496.223 72.3657L499.959 74.8834C498.335 75.4519 497.035 75.2083 496.142 74.6397Z" fill="#296BFF"/>
<path d="M474.377 80.4037C485.991 87.0634 504.833 86.9822 516.446 80.3225C527.979 73.5817 527.979 62.6989 516.365 55.958C504.751 49.2984 485.909 49.3796 474.296 56.1205C462.682 62.8613 462.763 73.7441 474.377 80.4037Z" fill="#1D60FF"/>
<path d="M474.377 76.1811C485.991 82.922 504.833 82.8408 516.446 76.0999C527.979 69.3591 527.979 58.4763 516.365 51.8166C504.751 45.157 485.91 45.157 474.296 51.8979C462.682 58.6387 462.763 69.5215 474.377 76.1811Z" fill="#5989FF"/>
<path d="M495.412 76.9937C501.828 76.9937 508.081 75.4506 512.629 72.8517C516.771 70.4153 519.208 67.1667 519.208 63.9181C519.208 60.7507 516.771 57.5021 512.548 55.0656C508.081 52.4668 501.746 51.0049 495.331 51.0049C488.915 51.0861 482.58 52.548 478.113 55.1469C473.89 57.5833 471.535 60.8319 471.535 64.0805C471.535 67.3291 473.971 70.4965 478.113 72.9329C482.661 75.5318 488.915 76.9937 495.412 76.9937Z" fill="#454BFF"/>
<path d="M517.908 65.2987C517.908 62.1313 515.472 58.8827 511.249 56.4463C506.782 53.8474 500.447 52.3855 494.031 52.3855C487.615 52.4668 481.28 53.9286 476.814 56.5275C475.568 57.2855 474.485 58.0977 473.565 58.964C474.621 57.5833 476.164 56.2839 478.113 55.1469C482.58 52.548 488.915 51.0861 495.331 51.0049C501.746 51.0049 508.081 52.4668 512.548 55.0656C516.771 57.5021 519.208 60.7507 519.208 63.9181C519.208 66.1921 517.989 68.4661 515.878 70.4153C517.177 68.791 517.908 67.0855 517.908 65.2987Z" fill="#234FD9"/>
<path fill-rule="evenodd" clip-rule="evenodd" d="M503.696 71.7977L506.944 73.9905L509.381 72.4474L506.213 70.3358C508.325 68.7928 509.543 67.006 509.543 65.5442V64.5696L505.076 64.1635C504.914 65.3817 504.021 66.7624 502.477 67.8994L498.011 64.8944C499.96 63.1077 501.909 61.0773 498.417 58.9657C495.899 57.3414 492.001 56.8542 487.778 58.1536L485.26 56.5293H482.742V57.5039L485.179 59.1282C483.554 59.9403 481.037 61.5646 481.037 61.5646V62.458L485.341 64.0011C486.072 62.864 487.047 61.9707 488.265 61.2398L492.407 64.0823C490.133 65.9502 487.615 68.3867 491.432 71.148C494.356 73.2596 498.985 73.9093 503.696 71.7977ZM494.275 62.458L490.864 60.184C492.488 59.7779 493.625 60.0215 494.437 60.5088C495.331 61.0773 495.006 61.727 494.275 62.458ZM496.143 68.9552C495.249 68.3055 495.493 67.5745 496.224 66.6812L499.96 69.1988C498.335 69.7673 497.036 69.5237 496.143 68.9552Z" fill="#0248C2"/>
<path fill-rule="evenodd" clip-rule="evenodd" d="M503.696 70.8221L506.944 73.0961L509.381 71.4718L506.213 69.3603C508.325 67.8172 509.543 66.0304 509.543 64.5686L505.076 63.1879C504.914 64.4061 504.021 65.868 502.477 66.9238L498.011 64.0001C499.96 62.1321 501.909 60.183 498.417 57.9902C495.899 56.4471 492.001 55.8786 487.778 57.178L485.26 55.5537L482.742 56.5283L485.179 58.2338C483.311 59.1272 481.768 60.2642 481.037 61.5636L485.341 63.0255C486.072 61.8885 487.047 60.9951 488.265 60.3454L492.407 63.1067C490.133 65.0559 487.615 67.4111 491.432 70.1724C494.275 72.284 498.985 72.9337 503.696 70.8221ZM494.275 61.4824L490.864 59.2084C492.488 58.8023 493.625 59.0459 494.437 59.5332C495.331 60.1017 495.006 60.7515 494.275 61.4824ZM496.143 67.9796C495.249 67.3299 495.493 66.5989 496.224 65.7056L499.96 68.3045C498.335 68.7918 497.036 68.6293 496.143 67.9796Z" fill="#296BFF"/>
<path d="M474.377 73.7446C485.99 80.4042 504.832 80.4043 516.446 73.6634C527.978 66.9226 527.978 56.0397 516.365 49.3801C504.751 42.7205 485.909 42.7205 474.295 49.4613C462.682 56.2022 462.682 67.085 474.377 73.7446Z" fill="#1D60FF"/>
<path d="M474.376 69.5208C485.99 76.2616 504.832 76.1804 516.364 69.4396C527.978 62.6987 527.978 51.8159 516.364 45.1563C504.67 38.4967 485.909 38.5779 474.295 45.3187C462.681 51.9783 462.681 62.8612 474.376 69.5208Z" fill="#5989FF"/>
<path d="M495.33 70.3325C501.827 70.3325 508.081 68.7894 512.629 66.1905C516.771 63.7541 519.207 60.5055 519.207 57.3381C519.126 54.0895 516.771 50.8409 512.548 48.4857C508 45.8868 501.746 44.3437 495.33 44.4249C488.833 44.4249 482.579 45.8868 478.113 48.5669C473.889 51.0033 471.534 54.1707 471.534 57.4193C471.534 60.6679 473.889 63.9165 478.113 66.2717C482.661 68.8706 488.914 70.3325 495.33 70.3325Z" fill="#454BFF"/>
<path d="M517.908 58.7187C517.908 55.4701 515.472 52.2215 511.248 49.7851C506.782 47.2674 500.447 45.7244 494.031 45.8056C487.615 45.8056 481.28 47.2674 476.813 49.9475C475.514 50.6514 474.404 51.4365 473.483 52.3028C474.62 50.9221 476.163 49.6227 478.113 48.5669C482.579 45.8868 488.833 44.4249 495.33 44.4249C501.746 44.3437 508 45.8868 512.548 48.4857C516.771 50.8409 519.126 54.0895 519.207 57.3381C519.207 59.5309 517.989 61.8049 515.878 63.7541C517.177 62.1298 517.908 60.4243 517.908 58.7187Z" fill="#234FD9"/>
<path fill-rule="evenodd" clip-rule="evenodd" d="M503.614 65.1346L506.944 67.4086L509.381 65.7843L506.213 63.6728C508.325 62.1297 509.543 60.3429 509.543 58.8811V57.9065L505.076 57.5004C504.914 58.7186 504.02 60.1805 502.477 61.2363L498.01 58.3126C499.96 56.4446 501.909 54.4955 498.335 52.3027C495.899 50.7596 492.001 50.1911 487.777 51.4905L485.26 49.8662H482.661L482.742 50.8408L485.179 52.5463C483.554 53.2773 480.955 54.9015 480.955 54.9015V55.8761L485.341 57.338C486.072 56.201 487.046 55.3076 488.265 54.6579L492.407 57.4192C490.133 59.3684 487.615 61.7236 491.432 64.4849C494.275 66.5965 498.985 67.2462 503.614 65.1346ZM494.275 55.7949L490.864 53.5209C492.407 53.1148 493.625 53.3584 494.437 53.8457C495.249 54.4142 495.006 55.064 494.275 55.7949ZM496.143 62.2921C495.168 61.6424 495.493 60.9114 496.143 60.0181L499.878 62.5357C498.335 63.1043 497.036 62.9418 496.143 62.2921Z" fill="#0248C2"/>
<path fill-rule="evenodd" clip-rule="evenodd" d="M503.614 64.161L506.944 66.435L509.381 64.8107L506.132 62.6991C508.325 61.2373 509.543 59.3693 509.543 57.9074L505.076 56.5268C504.914 57.8262 504.02 59.2069 502.477 60.2627L498.01 57.3389C499.96 55.5522 501.828 53.5218 498.335 51.329C495.899 49.7859 492.001 49.2174 487.777 50.5169L485.26 48.8926L482.661 49.8671L485.179 51.5727C483.311 52.466 481.767 53.6843 480.955 54.9025L485.341 56.3643C486.072 55.2273 487.046 54.334 488.183 53.6843L492.407 56.5268C490.133 58.3947 487.615 60.75 491.432 63.5113C494.275 65.6229 498.985 66.2726 503.614 64.161ZM494.275 54.9025L490.864 52.5473C492.407 52.2224 493.625 52.3848 494.437 52.9533C495.249 53.5218 495.006 54.0903 494.275 54.9025ZM496.143 61.3185C495.168 60.6687 495.493 59.9378 496.143 59.0444L499.878 61.6433C498.335 62.1306 497.036 61.9682 496.143 61.3185Z" fill="#296BFF"/>
<path d="M474.295 67.0864C485.99 73.746 504.832 73.746 516.365 67.0052C527.978 60.2643 527.978 49.3815 516.365 42.7219C504.67 36.0623 485.909 36.0623 474.295 42.8031C462.682 49.544 462.682 60.4268 474.295 67.0864Z" fill="#1D60FF"/>
<path d="M474.295 62.9438C485.99 69.6034 504.751 69.5222 516.364 62.7814C527.978 56.1217 527.978 45.2389 516.283 38.4981C504.669 31.8385 485.828 31.9197 474.295 38.6605C462.681 45.4014 462.681 56.2842 474.295 62.9438Z" fill="#5989FF"/>
<path d="M495.33 63.6751C501.827 63.6751 508.081 62.2133 512.548 59.5332C516.771 57.0967 519.126 53.9294 519.126 50.6808C519.126 47.4322 516.69 44.1836 512.548 41.8283C508 39.2294 501.746 37.7676 495.249 37.7676C488.833 37.7676 482.579 39.3107 478.031 41.9095C473.889 44.346 471.453 47.5946 471.453 50.762C471.534 54.0106 473.889 57.2592 478.112 59.6144C482.66 62.2133 488.914 63.7564 495.33 63.6751Z" fill="#454BFF"/>
<path d="M517.908 52.0614C517.827 48.8128 515.471 45.5642 511.248 43.209C506.7 40.6101 500.447 39.1482 494.031 39.1482C487.533 39.1482 481.28 40.6913 476.813 43.2902C475.514 44.0482 474.404 44.8603 473.483 45.7266C474.62 44.346 476.163 43.0466 478.031 41.9095C482.579 39.3107 488.833 37.7676 495.249 37.7676C501.746 37.7676 508 39.2294 512.548 41.8283C516.69 44.1836 519.126 47.4322 519.126 50.6808C519.126 52.8736 517.989 55.1476 515.877 57.0967C517.177 55.5536 517.908 53.7669 517.908 52.0614Z" fill="#234FD9"/>
<path fill-rule="evenodd" clip-rule="evenodd" d="M503.614 58.4764L506.944 60.7504L509.38 59.1261L506.132 57.0146C508.324 55.5527 509.543 53.6847 509.543 52.2228V51.3295L505.076 50.8422C504.913 52.1416 504.02 53.5223 502.477 54.5781L498.01 51.6544C499.959 49.8676 501.827 47.8373 498.335 45.6445C495.817 44.1014 492 43.5329 487.777 44.8323L485.259 43.208L482.661 43.2892V44.1826L485.097 45.8881C483.554 46.7002 480.955 48.2433 480.955 48.2433V49.2179L485.341 50.6798C486.072 49.5428 487.046 48.6494 488.183 47.9997L492.406 50.8422C490.051 52.7102 487.615 55.0654 491.351 57.8267C494.274 59.9383 498.985 60.588 503.614 58.4764ZM494.274 49.2179L490.863 46.8627C492.406 46.5378 493.625 46.7003 494.437 47.2688C495.249 47.756 495.005 48.4058 494.274 49.2179ZM496.142 55.6339C495.168 54.9842 495.411 54.2532 496.142 53.3599L499.878 55.9587C498.335 56.446 497.036 56.2836 496.142 55.6339Z" fill="#0248C2"/>
<path fill-rule="evenodd" clip-rule="evenodd" d="M503.614 57.5028L506.944 59.7768L509.38 58.2337L506.132 56.1221C508.243 54.5791 509.543 52.7111 509.543 51.3305L505.076 49.9498C504.913 51.168 504.02 52.5487 502.477 53.6857L498.01 50.6807C499.959 48.894 501.827 46.8636 498.335 44.6708C495.817 43.1277 492 42.5592 487.777 43.9399L485.259 42.2344L482.66 43.2902L485.097 44.9145C483.229 45.889 481.686 47.0261 480.955 48.2443L485.341 49.7874C486.071 48.6503 487.046 47.6758 488.183 47.0261L492.325 49.8686C490.051 51.7365 487.615 54.0918 491.35 56.8531C494.274 59.0459 498.985 59.6144 503.614 57.5028ZM494.274 48.2443L490.863 45.9703C492.406 45.5642 493.624 45.8078 494.437 46.2951C495.249 46.8636 495.005 47.5133 494.274 48.2443ZM496.142 54.7415C495.168 54.0918 495.411 53.2796 496.142 52.4675L499.878 54.9851C498.335 55.4724 497.035 55.31 496.142 54.7415Z" fill="#296BFF"/>
<path d="M474.295 60.5065C485.909 67.1661 504.751 67.0849 516.365 60.344C527.978 53.6032 527.978 42.7204 516.283 36.0607C504.67 29.4011 485.828 29.4823 474.295 36.142C462.682 42.8828 462.682 53.7656 474.295 60.5065Z" fill="#1D60FF"/>
<path d="M474.295 56.284C485.909 62.9436 504.751 62.9436 516.365 56.2028C527.978 49.462 527.897 38.5791 516.284 31.9195C504.67 25.1787 485.828 25.2599 474.214 32.0007C462.682 38.7416 462.682 49.6244 474.295 56.284Z" fill="#5989FF"/>
<path d="M495.33 57.0952C501.746 57.014 508.081 55.5522 512.548 52.9533C516.771 50.5168 519.126 47.2682 519.126 44.0196C519.126 40.771 516.69 37.6036 512.548 35.1672C508 32.5683 501.746 31.1064 495.249 31.1064C488.833 31.1064 482.579 32.6495 478.031 35.2484C473.889 37.6849 471.453 40.9335 471.453 44.1821C471.453 47.3494 473.889 50.598 478.112 53.0345C482.579 55.6334 488.914 57.0952 495.33 57.0952Z" fill="#1D60FF"/>
<path d="M517.827 45.4003C517.827 42.1517 515.39 38.9843 511.248 36.5479C506.7 33.949 500.446 32.4871 493.949 32.4871C487.533 32.4871 481.28 34.0302 476.732 36.6291C475.486 37.3871 474.404 38.1992 473.483 39.0655C474.62 37.6849 476.082 36.3854 478.031 35.2484C482.579 32.6495 488.833 31.1064 495.249 31.1064C501.746 31.1064 508 32.5683 512.548 35.1672C516.69 37.6036 519.126 40.771 519.126 44.0196C519.126 46.2937 517.989 48.4865 515.877 50.5168C517.177 48.8925 517.827 47.1058 517.827 45.4003Z" fill="#234FD9"/>
<path fill-rule="evenodd" clip-rule="evenodd" d="M503.614 51.8182L506.944 54.0922L509.299 52.5492L506.132 50.4376C508.243 48.8945 509.543 47.0265 509.543 45.5647V44.6713L505.076 44.2652C504.913 45.4834 503.939 46.8641 502.477 48.0011L498.01 44.9962C499.959 43.2094 501.827 41.1791 498.335 38.9863C495.817 37.4432 492 36.8747 487.696 38.2553L485.259 36.5498L482.661 36.631V37.6056L485.097 39.2299C483.554 40.042 480.955 41.5851 480.955 41.5851V42.5597L485.341 44.0216C485.99 42.9658 487.046 41.9912 488.183 41.3415L492.325 44.184C490.051 46.0519 487.615 48.4072 491.351 51.1685C494.274 53.2801 498.985 53.9298 503.614 51.8182ZM494.274 42.5597L490.782 40.2857C492.406 39.8796 493.625 40.1233 494.437 40.6106C495.249 41.1791 495.005 41.8288 494.274 42.5597ZM496.142 49.0569C495.168 48.4072 495.411 47.595 496.142 46.7829L499.878 49.3006C498.254 49.7879 496.954 49.6254 496.142 49.0569Z" fill="#0248C2"/>
<path fill-rule="evenodd" clip-rule="evenodd" d="M503.614 50.9247L506.943 53.1175L509.299 51.5744L506.131 49.4628C508.243 47.9197 509.542 46.133 509.542 44.6711L504.994 43.2905C504.913 44.5087 503.938 45.8893 502.476 47.0263L498.01 44.0214C499.959 42.2347 501.827 40.2043 498.335 38.0115C495.817 36.4684 492 35.8999 487.695 37.2805L485.259 35.6562L482.66 36.6308L485.096 38.2551C483.229 39.2297 481.685 40.3667 480.955 41.585L485.34 43.128C485.99 41.991 487.046 41.0977 488.183 40.3667L492.325 43.2093C490.051 45.0772 487.614 47.5136 491.35 50.2749C494.274 52.3865 498.984 53.0363 503.614 50.9247ZM494.274 41.585L490.782 39.3109C492.406 38.9048 493.624 39.1485 494.436 39.6358C495.248 40.2043 495.005 40.854 494.274 41.585ZM496.142 48.0822C495.167 47.4324 495.411 46.6203 496.142 45.8081L499.878 48.3258C498.253 48.8943 496.954 48.6507 496.142 48.0822Z" fill="#296BFF"/>
<path style="mix-blend-mode:color-dodge" opacity="0.5" d="M489.077 29.3197C474.377 33.2992 467.636 55.5521 473.971 79.1045C480.387 102.576 497.442 118.413 512.223 114.433C526.923 110.453 533.664 88.1193 527.329 64.6482C520.913 41.0959 503.777 25.259 489.077 29.3197Z" fill="url(#paint1_radial_0_74)"/>
<path style="mix-blend-mode:multiply" opacity="0.3" d="M535.206 174.936V175.505L395.598 90.3102C386.421 84.95 375.132 84.95 365.954 90.3102L86.9811 262.973V257.532L67.8956 254.852V280.11C67.8956 280.38 67.8956 280.678 67.8956 281.003V281.409C68.2205 284.901 70.0884 288.393 73.5806 290.424L220.255 375.212C228.539 380.004 238.772 380.004 247.056 375.212L546.008 201.493C549.825 199.301 551.693 195.484 551.693 191.585V168.845L535.206 174.936Z" fill="url(#paint2_radial_0_74)"/>
<path d="M535.206 153.576V154.145L395.598 68.9504C386.421 63.6715 375.132 63.6715 365.954 68.9504L86.9811 241.613V236.172L67.8956 233.492V258.75C67.8956 259.021 67.8956 259.318 67.8956 259.643V260.049C68.2205 263.542 70.0884 267.034 73.5806 269.064L220.255 353.934C228.539 358.725 238.772 358.725 247.056 353.934L546.008 180.134C549.825 177.941 551.693 174.124 551.693 170.225V147.485L535.206 153.576Z" fill="url(#paint3_radial_0_74)"/>
<path d="M277.836 335.985L309.672 317.793L341.508 299.439L405.018 262.73L468.366 225.696L500.04 207.178L531.633 188.499L499.796 206.691L468.041 225.046L404.45 261.755L341.102 298.789L309.428 317.306L277.836 335.985Z" fill="#00FFFF"/>
<path d="M395.598 49.134L543.896 134.735C554.373 140.826 554.373 155.932 543.896 161.942L260.862 326.158C239.096 338.747 230 339.071 210.021 328.189L78.2908 252.171C64.403 244.131 64.403 224.071 78.2908 216.031L365.954 49.134C375.131 43.8551 386.42 43.8551 395.598 49.134Z" fill="#3D7BFF"/>
<path d="M395.598 49.134L543.896 134.735C554.373 140.826 554.373 155.932 543.896 161.942L260.862 326.158C239.096 338.747 230 339.071 210.021 328.189L78.2908 252.171C64.403 244.131 64.403 224.071 78.2908 216.031L365.954 49.134C375.131 43.8551 386.42 43.8551 395.598 49.134Z" fill="url(#paint4_radial_0_74)"/>
<path d="M470.153 117.599L416.47 86.1685C415.17 85.4376 414.764 83.8133 415.495 82.5951L417.769 80.2398C418.5 78.9404 420.124 78.5343 421.424 79.2653L475.757 110.939C477.381 111.914 477.543 114.35 475.919 115.406L472.914 117.436C472.102 118.086 471.046 118.086 470.153 117.599Z" fill="url(#paint5_radial_0_74)"/>
<path d="M524.242 141.232L481.929 116.136C481.767 116.705 473.889 122.146 473.889 122.146C472.996 122.715 471.94 122.796 471.046 122.309L409.161 86.9801C407.942 86.2492 407.455 84.6249 408.186 83.3255L413.871 78.0465C413.952 77.8841 414.115 77.8029 414.196 77.7216L388.694 62.9405C384.796 60.7477 380.004 60.7477 376.106 62.9405L96.3205 224.315C91.6913 226.995 91.6913 233.654 96.3205 236.334L234.467 316.088C236.091 317.062 237.878 317.549 239.746 317.549C241.533 317.549 243.32 317.062 244.944 316.088L524.242 155.038C529.521 151.952 529.521 144.237 524.242 141.232Z" fill="url(#paint6_radial_0_74)"/>
<path d="M524.242 141.232L481.929 116.136C481.767 116.705 473.889 122.146 473.889 122.146C472.996 122.715 471.94 122.796 471.046 122.309L409.161 86.9801C407.942 86.2492 407.455 84.6249 408.186 83.3255L413.871 78.0465C413.952 77.8841 414.115 77.8029 414.196 77.7216L388.694 62.9405C384.796 60.7477 380.004 60.7477 376.106 62.9405L96.3205 224.315C91.6913 226.995 91.6913 233.654 96.3205 236.334L234.467 316.088C236.091 317.062 237.878 317.549 239.746 317.549C241.533 317.549 243.32 317.062 244.944 316.088L524.242 155.038C529.521 151.952 529.521 144.237 524.242 141.232Z" fill="url(#paint7_radial_0_74)"/>
<path d="M334.28 105.822C331.763 104.36 328.677 104.36 326.159 105.822L152.44 206.853C149.435 208.559 149.435 212.863 152.44 214.65L267.928 282.627C268.984 283.195 270.121 283.52 271.339 283.52C272.476 283.52 273.694 283.195 274.669 282.627L448.144 181.758C451.555 179.728 451.555 174.774 448.144 172.743L334.28 105.822Z" fill="url(#paint8_radial_0_74)"/>
<path d="M271.339 279.217C270.906 279.217 270.472 279.109 270.039 278.892L154.552 210.915C154.47 210.915 154.389 210.834 154.389 210.753C154.389 210.59 154.47 210.59 154.552 210.509L328.27 109.478C328.839 109.153 329.57 108.99 330.22 108.99C330.95 108.99 331.6 109.153 332.169 109.478L445.951 176.48C446.357 176.723 446.438 177.048 446.438 177.292C446.438 177.536 446.357 177.861 445.951 178.023L272.557 278.892C272.232 279.136 271.745 279.217 271.339 279.217Z" fill="url(#paint9_radial_0_74)"/>
<path d="M252.984 159.101L358.239 219.931L252.984 159.101Z" fill="url(#paint10_linear_0_74)"/>
<path d="M476.731 173.718L493.38 163.973C498.01 161.292 498.01 154.633 493.38 151.953L369.69 81.8642C366.279 79.9151 362.137 79.9151 358.807 81.8642L336.798 94.2901L476.731 173.718Z" fill="url(#paint11_linear_0_74)"/>
<path d="M196.459 261.755C168.602 246.243 113.213 214.65 113.213 214.65L96.3207 224.315C91.6915 226.995 91.6915 233.655 96.3207 236.335L234.549 316.088C236.092 317.062 237.96 317.55 239.746 317.55C241.614 317.55 243.401 317.062 244.944 316.088L268.009 302.85C268.009 302.85 220.661 275.156 196.459 261.755Z" fill="#00359D"/>
<path d="M205.961 265.735C198.651 272.151 183.627 273.857 173.15 268.253C162.186 262.324 163.323 252.254 174.287 246.975C183.545 242.589 196.296 243.482 203.849 248.193C210.996 252.822 212.214 260.294 205.961 265.735Z" fill="#00359D"/>
<path d="M184.763 268.008L170.957 259.886C169.901 259.318 169.982 258.262 171.201 257.612L182.733 251.277L197.271 260.861L188.174 267.683C187.2 268.414 185.657 268.576 184.763 268.008Z" fill="#00FEF6"/>
<path d="M181.028 262.486L178.429 260.862C178.023 260.618 178.023 260.212 178.51 259.968L182.815 257.207C183.221 256.964 183.87 256.964 184.277 257.207L186.713 258.75C187.038 258.994 187.038 259.4 186.632 259.644L182.49 262.486C182.084 262.73 181.434 262.73 181.028 262.486Z" fill="#00359D"/>
<path d="M198.245 262.405L179.972 250.548C179.566 250.223 179.891 249.817 180.54 249.898L197.352 251.279C197.677 251.279 197.92 251.441 197.92 251.685L199.138 262.08C199.138 262.405 198.57 262.649 198.245 262.405Z" fill="#00FEF6"/>
<path d="M524.242 141.232L481.929 116.136C481.767 116.705 473.889 122.146 473.889 122.146C472.996 122.715 471.94 122.796 471.046 122.309L409.161 86.9801C407.942 86.2492 407.455 84.6249 408.186 83.3255L413.871 78.0465C413.952 77.8841 414.115 77.8029 414.196 77.7216L388.694 62.9405C384.796 60.7477 380.004 60.7477 376.106 62.9405L96.3205 224.315C91.6913 226.995 91.6913 233.654 96.3205 236.334L234.467 316.088C236.091 317.062 237.878 317.549 239.746 317.549C241.533 317.549 243.32 317.062 244.944 316.088L524.242 155.038C529.521 151.952 529.521 144.237 524.242 141.232Z" stroke="url(#paint12_radial_0_74)" stroke-width="2.11159"/>
<path d="M266.466 124.502L496.629 6.09082L445.951 178.023L270.283 278.323L154.552 210.915L70.0882 9.66427L266.466 124.502Z" fill="url(#paint13_radial_0_74)"/>
<path d="M305.53 252.091L414.521 189.718V83.8135L305.53 145.943V252.091Z" fill="url(#paint14_linear_0_74)"/>
<path d="M331.032 152.604L387.557 120.361V172.258L331.032 204.906V152.604Z" fill="url(#paint15_radial_0_74)"/>
<path d="M376.431 165.354L387.557 172.258V120.361L376.431 126.696V165.354Z" fill="url(#paint16_radial_0_74)"/>
<path d="M376.431 165.354L331.032 191.343V204.906L387.557 172.258L376.431 165.354Z" fill="#00F2FF"/>
<path d="M423.536 68.0576V78.6156L305.53 145.943V136.847L423.536 68.0576Z" fill="url(#paint17_linear_0_74)"/>
<path d="M259.319 225.29L296.353 206.448V149.191L259.319 154.064V225.29Z" fill="url(#paint18_radial_0_74)"/>
<path d="M268.821 220.499L259.319 225.291V156.015H268.821V220.499Z" fill="url(#paint19_radial_0_74)"/>
<path d="M305.53 136.848V252.092L295.622 246.326V154.065H259.319V225.291L195.159 188.176V72.4443L305.53 136.848Z" fill="url(#paint20_linear_0_74)"/>
<path d="M203.849 154.308V112.482L250.304 138.065V182.165L203.849 154.308Z" fill="url(#paint21_radial_0_74)"/>
<path d="M212.702 149.435V117.274L203.85 112.482V154.308L212.702 149.435Z" fill="url(#paint22_radial_0_74)"/>
<path d="M212.702 149.436L250.304 171.12V182.165L203.849 154.308L212.702 149.436Z" fill="#00F2FF"/>
<path d="M423.536 68.0581L305.53 0L186.957 67.652L305.53 136.847L423.536 68.0581Z" fill="url(#paint23_radial_0_74)"/>
<path d="M305.205 125.802L405.425 68.383L305.205 8.93359L202.631 65.4592L305.205 125.802Z" fill="url(#paint24_linear_0_74)"/>
<path d="M305.205 8.93359V20.0601L396.247 73.6619L405.425 68.383L305.205 8.93359Z" fill="url(#paint25_linear_0_74)"/>
<path d="M305.206 20.0601L211.159 71.3067L202.631 65.4592L305.206 8.93359V20.0601Z" fill="url(#paint26_linear_0_74)"/>
<path d="M287.176 178.348V168.765L168.521 99.4883V109.478L287.176 178.348Z" fill="#00F2FF"/>
<path d="M305.53 136.849V168.035L287.176 178.349V168.766L305.53 136.849Z" fill="url(#paint27_linear_0_74)"/>
<path d="M305.531 136.847L186.957 67.6523L168.521 99.4886L287.176 168.765L305.531 136.847Z" fill="url(#paint28_linear_0_74)"/>
<path d="M277.674 163.242L296.353 131.487L305.531 136.847L287.176 168.765L277.674 163.242Z" fill="#00F2FF"/>
<path d="M259.319 152.523L277.917 120.768L287.095 126.128L268.821 158.045L259.319 152.523Z" fill="#00F2FF"/>
<path d="M240.883 141.721L259.563 110.047L268.74 115.407L250.385 147.325L240.883 141.721Z" fill="#00F2FF"/>
<path d="M222.529 131L241.127 99.2451L250.304 104.605L232.031 136.523L222.529 131Z" fill="#00F2FF"/>
<path d="M204.093 120.279L222.772 88.5244L231.95 93.8846L213.595 125.802L204.093 120.279Z" fill="#00F2FF"/>
<path d="M185.738 109.559L204.418 77.8037L213.514 83.1639L195.24 115.081L185.738 109.559Z" fill="#00F2FF"/>
<path d="M168.521 99.4886L186.956 67.6523L195.159 72.444L176.886 104.362L168.521 99.4886Z" fill="#00F2FF"/>
<path d="M277.674 163.242V172.906L268.821 167.709V158.044L277.674 163.242Z" fill="url(#paint29_linear_0_74)"/>
<path d="M259.319 152.522V162.187L250.385 156.989V147.324L259.319 152.522Z" fill="url(#paint30_linear_0_74)"/>
<path d="M240.883 141.72V151.547L232.031 146.349V136.522L240.883 141.72Z" fill="url(#paint31_linear_0_74)"/>
<path d="M222.529 131V140.828L213.595 135.63V125.803L222.529 131Z" fill="url(#paint32_linear_0_74)"/>
<path d="M204.093 120.279V130.187L195.241 124.989V115.081L204.093 120.279Z" fill="url(#paint33_linear_0_74)"/>
<path d="M185.738 109.559V119.467L176.805 114.27V104.361L185.738 109.559Z" fill="url(#paint34_linear_0_74)"/>
<path style="mix-blend-mode:multiply" opacity="0.3" d="M313.652 357.753L379.111 394.95C380.004 395.437 380.979 395.437 381.791 395.031L395.517 387.397C397.384 386.422 397.384 383.742 395.517 382.686L330.301 345.328C329.489 344.84 328.514 344.84 327.702 345.246L313.652 352.962C311.784 354.017 311.784 356.698 313.652 357.753Z" fill="url(#paint35_radial_0_74)"/>
<path d="M379.03 289.452L382.441 318.689L379.274 386.829L311.947 350.444L317.55 255.504L379.03 289.452Z" fill="url(#paint36_linear_0_74)"/>
<path d="M378.462 289.452L395.029 280.355L397.141 334.688L397.222 374.484L378.705 386.828L378.462 289.452Z" fill="#465ACF"/>
<path d="M378.461 289.452L387.72 294L395.029 280.355L378.461 289.452Z" fill="#5368F3"/>
<path style="mix-blend-mode:color-dodge" d="M317.55 255.504L378.137 291.076L378.543 291.238L378.868 291.076L395.029 280.356L378.137 289.777H378.868L317.55 255.504Z" fill="url(#paint37_radial_0_74)"/>
<g opacity="0.6">
<path d="M397.222 374.483L387.964 369.447L378.705 386.827L397.222 374.483Z" fill="#000C9D"/>
<path d="M385.121 374.889L387.801 300.902L390.887 371.072L385.121 374.889Z" fill="#000C9D"/>
<path style="mix-blend-mode:color-dodge" d="M378.705 386.828L385.121 374.889L387.801 300.902L390.887 371.072L397.222 374.483L378.705 386.828Z" fill="url(#paint38_radial_0_74)"/>
</g>
<path d="M377.568 281.493C378.137 281.493 378.624 281.006 378.624 280.356V254.286C378.543 248.114 373.507 240.398 367.335 237.069C363.924 235.201 360.594 234.957 358.239 236.419C356.533 237.475 355.478 239.261 355.153 241.617C355.153 241.725 355.153 241.86 355.153 242.023V268.093C355.153 268.742 355.64 269.23 356.29 269.23C356.858 269.23 357.346 268.661 357.346 268.093V242.916C357.346 242.916 357.346 242.889 357.346 242.835C357.346 240.723 358.077 239.099 359.376 238.287C361.081 237.312 363.599 237.556 366.279 239.018C371.883 241.942 376.35 248.845 376.431 254.286V280.356C376.431 281.006 376.918 281.493 377.568 281.493Z" fill="url(#paint39_radial_0_74)"/>
<path d="M317.55 255.505L336.473 245.759L395.029 280.356L378.461 289.452L317.55 255.505Z" fill="url(#paint40_radial_0_74)"/>
<path d="M336.473 245.759L336.554 266.144L317.55 255.505L336.473 245.759Z" fill="#465ACF"/>
<path d="M360.919 290.589C361.488 290.589 361.975 290.101 361.975 289.533V263.382C361.894 257.209 356.858 249.494 350.686 246.164C347.275 244.377 343.945 244.134 341.59 245.514C339.884 246.57 338.829 248.357 338.585 250.712C338.531 250.875 338.504 251.01 338.504 251.118V252.012V277.27C338.504 277.838 339.072 278.325 339.641 278.325C340.209 278.325 340.697 277.838 340.697 277.188V251.93C340.697 249.819 341.428 248.195 342.727 247.382C344.432 246.408 346.95 246.651 349.63 248.113C355.234 251.118 359.782 257.94 359.782 263.382L359.863 289.533C359.863 290.101 360.351 290.589 360.919 290.589Z" fill="#667AFF"/>
<path style="mix-blend-mode:multiply" opacity="0.3" d="M277.187 379.357L342.646 416.634C343.539 417.122 344.514 417.122 345.326 416.634L359.051 409.081C360.919 408.026 360.919 405.427 359.051 404.371L293.836 367.012C293.024 366.525 292.049 366.525 291.237 366.931L277.187 374.646C275.319 375.702 275.319 378.382 277.187 379.357Z" fill="url(#paint41_radial_0_74)"/>
<path d="M343.945 310.081L347.356 339.318L344.189 407.457L276.781 370.992L282.384 276.133L343.945 310.081Z" fill="url(#paint42_linear_0_74)"/>
<path d="M343.377 310.081L359.863 300.903L361.975 355.317L362.056 395.031L343.62 407.457L343.377 310.081Z" fill="#2DCDFF"/>
<path d="M343.376 310.081L352.635 314.547L359.863 300.903L343.376 310.081Z" fill="#53F3E9"/>
<path style="mix-blend-mode:color-dodge" d="M282.384 276.133L342.97 311.624L343.377 311.867L343.701 311.624L359.863 300.903L342.97 310.324H343.701L282.384 276.133Z" fill="url(#paint43_radial_0_74)"/>
<g opacity="0.6">
<path d="M362.056 395.032L352.798 390.078L343.62 407.458L362.056 395.032Z" fill="#2FFFDA"/>
<path d="M349.955 395.438L352.635 321.451L355.803 391.621L349.955 395.438Z" fill="#2FFFDA"/>
<path style="mix-blend-mode:color-dodge" d="M343.621 407.458L349.955 395.438L352.635 321.451L355.803 391.621L362.056 395.032L343.621 407.458Z" fill="url(#paint44_radial_0_74)"/>
</g>
<path d="M342.402 302.041C343.052 302.041 343.539 301.554 343.539 300.985L343.458 274.834C343.458 268.662 338.422 260.946 332.169 257.616C328.758 255.83 325.509 255.586 323.154 256.967C321.367 258.022 320.312 259.809 320.068 262.164C320.014 262.273 319.987 262.408 319.987 262.57L320.068 288.64C320.068 289.29 320.555 289.777 321.124 289.777C321.773 289.777 322.261 289.29 322.261 288.64L322.179 263.464C322.179 261.271 322.91 259.647 324.291 258.835C325.915 257.86 328.433 258.104 331.194 259.565C336.717 262.57 341.265 269.392 341.265 274.834L341.346 300.985C341.346 301.554 341.834 302.041 342.402 302.041Z" fill="url(#paint45_radial_0_74)"/>
<path d="M282.384 276.134L301.388 266.307L359.863 300.904L343.376 310.081L282.384 276.134Z" fill="url(#paint46_radial_0_74)"/>
<path d="M301.307 266.307L301.389 286.692L282.384 276.134L301.307 266.307Z" fill="#2DCDFF"/>
<path d="M325.753 311.219C326.403 311.219 326.89 310.65 326.89 310.082L326.809 284.012C326.809 277.839 321.774 270.124 315.601 266.794C312.109 264.926 308.86 264.683 306.505 266.145C304.718 267.119 303.663 268.987 303.419 271.342C303.365 271.451 303.338 271.559 303.338 271.667V272.56C303.338 272.615 303.338 272.642 303.338 272.642L303.419 297.818C303.419 298.387 303.906 298.874 304.475 298.874C305.124 298.874 305.612 298.387 305.612 297.818L305.531 272.479C305.531 270.368 306.261 268.743 307.642 268.012C309.266 266.957 311.784 267.282 314.545 268.662C320.068 271.667 324.616 278.57 324.616 284.012L324.697 310.082C324.697 310.732 325.185 311.219 325.753 311.219Z" fill="#66FFF6"/>
<path style="mix-blend-mode:multiply" opacity="0.3" d="M576.139 268.252L521.644 236.903C519.857 235.847 517.014 235.847 515.228 236.903L408.755 299.033C406.968 300.088 406.968 301.713 408.755 302.768L463.331 334.442C465.118 335.417 467.961 335.417 469.747 334.442L576.139 271.907C577.926 270.932 577.926 269.227 576.139 268.252Z" fill="url(#paint47_radial_0_74)"/>
<path d="M488.833 297.814H490.295L487.533 295.946C485.665 294.159 482.823 294.078 479.574 295.946C474.133 299.113 469.666 306.829 469.666 313.082C469.666 315.519 470.316 317.387 471.372 318.605C471.588 318.821 471.778 319.011 471.94 319.173L475.676 321.772C475.676 321.772 477.544 319.985 479.574 318.848C485.097 315.681 489.483 307.966 489.483 301.631C489.483 300.169 489.239 298.87 488.833 297.814Z" fill="#00359D"/>
<path d="M492.812 303.986C492.812 310.32 488.346 318.036 482.904 321.203C477.382 324.371 472.915 321.772 472.915 315.437C472.915 309.102 477.382 301.468 482.904 298.301C488.346 295.133 492.812 297.651 492.812 303.986Z" fill="url(#paint48_linear_0_74)"/>
<path d="M478.925 317.63C477.625 317.63 477.544 315.518 477.544 314.868C477.544 310.483 480.874 304.798 484.61 302.605C485.503 302.118 486.234 301.874 486.802 301.874C488.102 301.874 488.183 303.986 488.183 304.635C488.183 309.021 484.853 314.706 481.117 316.899C480.305 317.386 479.493 317.63 478.925 317.63Z" fill="url(#paint49_radial_0_74)"/>
<path d="M566.474 253.552H568.017L565.175 251.602C563.388 249.897 560.545 249.735 557.297 251.602C551.774 254.77 547.389 262.485 547.389 268.82C547.389 271.175 547.957 273.043 549.094 274.261C549.257 274.478 549.446 274.668 549.663 274.83L553.399 277.429C553.399 277.429 555.267 275.723 557.297 274.505C562.738 271.338 567.205 263.704 567.205 257.369C567.205 255.826 566.961 254.526 566.474 253.552Z" fill="#00359D"/>
<path d="M570.535 259.643C570.535 265.978 566.068 273.693 560.546 276.86C555.104 280.028 550.637 277.51 550.637 271.175C550.637 264.841 555.104 257.125 560.546 253.958C566.068 250.79 570.535 253.389 570.535 259.643Z" fill="url(#paint50_linear_0_74)"/>
<path d="M556.647 273.286C555.348 273.286 555.267 271.174 555.267 270.525C555.267 266.139 558.597 260.454 562.332 258.261C563.145 257.774 563.957 257.53 564.525 257.53C565.825 257.53 565.906 259.642 565.906 260.292C565.906 264.677 562.576 270.362 558.84 272.555C557.947 273.042 557.216 273.286 556.647 273.286Z" fill="url(#paint51_radial_0_74)"/>
<path d="M577.52 248.192V242.832L553.317 234.142L492.731 269.064V297.083L577.52 248.192Z" fill="url(#paint52_radial_0_74)"/>
<path d="M492.731 300.901L577.52 251.928V242.832L492.731 291.805V300.901Z" fill="url(#paint53_radial_0_74)"/>
<path d="M492.731 230.974L444.408 203.199L529.197 154.063L577.519 182.083L492.731 230.974Z" fill="url(#paint54_linear_0_74)"/>
<path d="M444.408 203.199L444.327 272.8L492.731 300.738V230.975L444.408 203.199Z" fill="#465ACF"/>
<path d="M492.731 230.974L577.519 181.92V237.958L492.731 286.931V230.974Z" fill="url(#paint55_linear_0_74)"/>
<path d="M497.685 233.817L572.565 190.448V235.116L497.685 278.404V233.817Z" fill="#465ACF"/>
<path d="M444.084 217.249L420.206 230.974L408.105 265.978V293.916L444.084 273.125V217.249Z" fill="#DB4D54"/>
<path d="M456.428 293.834L408.024 265.896V293.916L456.509 321.854L456.428 293.834Z" fill="url(#paint56_radial_0_74)"/>
<path fill-rule="evenodd" clip-rule="evenodd" d="M420.206 230.975L408.024 265.897L456.428 293.835L468.61 258.913L420.206 230.975ZM454.398 288.394L412.572 264.192L422.236 236.497L464.062 260.618L454.398 288.394Z" fill="url(#paint57_radial_0_74)"/>
<path d="M412.572 264.274L422.237 236.498L464.062 260.619L454.398 288.394L412.572 264.274Z" fill="#43ACFF"/>
<path d="M444.327 300.9V309.266L451.636 313.408V305.042L444.327 300.9Z" fill="url(#paint58_radial_0_74)"/>
<path d="M423.13 288.638V297.003L440.835 307.236V298.871L423.13 288.638Z" fill="url(#paint59_linear_0_74)"/>
<path d="M412.897 282.708V291.073L420.125 295.296V286.931L412.897 282.708Z" fill="url(#paint60_radial_0_74)"/>
<path d="M492.731 244.943L468.61 258.912L456.428 293.835L456.509 321.854L492.731 300.9V244.943Z" fill="url(#paint61_radial_0_74)"/>
<path d="M444.408 217.006L420.206 230.975L468.61 258.913L492.731 244.944L444.408 217.006Z" fill="url(#paint62_linear_0_74)"/>
<path d="M463.25 317.875V285.714" stroke="url(#paint63_radial_0_74)" stroke-width="1.21822"/>
<path d="M484.366 273.45V305.693" stroke="url(#paint64_radial_0_74)" stroke-width="1.21822"/>
<path d="M470.397 290.343L465.199 293.348" stroke="url(#paint65_radial_0_74)" stroke-width="1.21822"/>
<path d="M484.366 254.121L471.697 261.512L463.25 285.714L484.366 273.45V254.121Z" fill="#2D93E4"/>
<path style="mix-blend-mode:multiply" opacity="0.3" d="M3.4921 339.235L43.8559 316.008C45.1553 315.195 47.2669 315.195 48.6476 316.008L123.203 359.376C124.502 360.107 124.502 361.326 123.203 362.056L82.7579 385.528C81.4584 386.34 79.3469 386.34 78.0474 385.528L3.4921 341.915C2.19266 341.184 2.19266 339.966 3.4921 339.235Z" fill="url(#paint66_radial_0_74)"/>
<path d="M28.3439 335.663C27.2069 335.013 26.2324 334.932 25.4202 335.257H25.339C25.1766 335.365 25.0141 335.473 24.8517 335.582L22.6589 336.881L23.4711 338.668C23.4711 338.939 23.4711 339.209 23.4711 339.48C23.4711 343.216 25.6639 347.52 28.3439 349.145C28.5064 349.307 28.6959 349.415 28.9125 349.47C29.1561 350.119 29.3185 350.688 29.3185 350.688L31.3489 349.551C31.4031 349.497 31.4572 349.47 31.5114 349.47L31.5925 349.388C32.5671 348.739 33.1357 347.358 33.1357 345.409C33.1357 341.673 31.024 337.287 28.3439 335.663Z" fill="#15327D"/>
<path d="M30.6994 346.791C30.6994 350.527 28.5878 352.232 25.9077 350.608C23.2276 348.984 21.0348 344.598 21.0348 340.943C21.0348 337.208 23.2276 335.502 25.9077 337.126C28.5878 338.751 30.6994 343.136 30.6994 346.791Z" fill="url(#paint67_radial_0_74)"/>
<path d="M28.1818 345.247C28.1818 347.034 27.126 347.846 25.9078 347.115C24.6083 346.303 23.5525 344.273 23.5525 342.486C23.5525 340.699 24.6083 339.887 25.9078 340.699C27.126 341.43 28.1818 343.542 28.1818 345.247Z" fill="#2A2184"/>
<path d="M76.4232 359.945C75.2862 359.295 74.3116 359.214 73.4994 359.539C73.2828 359.647 73.1204 359.756 73.0121 359.864L70.8193 361.163L71.6315 362.95C71.5773 363.221 71.5503 363.492 71.5503 363.762C71.5503 367.498 73.7431 371.803 76.4232 373.427C76.6398 373.535 76.8293 373.643 76.9917 373.752C77.2353 374.401 77.479 374.97 77.479 374.97L79.4281 373.833C79.4823 373.779 79.5364 373.752 79.5905 373.752L79.6718 373.67C80.6464 373.021 81.2961 371.64 81.2961 369.691C81.2961 365.955 79.1033 361.569 76.4232 359.945Z" fill="#15327D"/>
<path d="M78.8598 371.071C78.8598 374.807 76.667 376.513 73.9869 374.888C71.3068 373.264 69.114 368.878 69.114 365.224C69.114 361.488 71.3068 359.782 73.9869 361.407C76.667 363.031 78.8598 367.417 78.8598 371.071Z" fill="url(#paint68_radial_0_74)"/>
<path d="M76.2609 369.528C76.2609 371.314 75.2864 372.127 73.9869 371.314C72.6875 370.583 71.7129 368.472 71.7129 366.766C71.7129 364.98 72.6875 364.167 73.9869 364.98C75.2864 365.711 76.2609 367.822 76.2609 369.528Z" fill="#2A2184"/>
<path d="M78.6973 362.948L76.4232 369.527C75.7735 371.476 73.3371 370.095 73.0122 368.146L71.3067 358.969L78.6973 362.948Z" fill="#1D45AB"/>
<path d="M78.0477 362.948L75.7737 369.527C75.124 371.476 72.6875 370.095 72.3626 368.146L70.6571 358.969L78.0477 362.948Z" fill="#15327D"/>
<path d="M74.6365 368.796C74.6365 369.284 74.3116 369.527 73.9867 369.365C73.6619 369.121 73.337 368.553 73.337 367.984C73.337 367.497 73.6619 367.253 73.9867 367.497C74.3116 367.741 74.6365 368.309 74.6365 368.796Z" fill="#0F2559"/>
<path d="M30.6179 338.26L28.4251 344.757C27.7754 346.706 25.3389 345.326 25.0141 343.376L23.3085 334.28L30.6179 338.26Z" fill="#1D45AB"/>
<path d="M30.0493 338.26L27.7753 344.757C27.1256 346.706 24.6892 345.326 24.3643 343.376L22.6588 334.28L30.0493 338.26Z" fill="#15327D"/>
<path d="M26.6382 344.108C26.6382 344.595 26.3133 344.839 25.9884 344.595C25.5823 344.352 25.3387 343.783 25.3387 343.296C25.3387 342.808 25.5823 342.565 25.9884 342.808C26.3133 342.971 26.6382 343.539 26.6382 344.108Z" fill="#0F2559"/>
<path d="M60.6674 317.307C59.5304 316.657 58.5558 316.576 57.7437 316.9C57.5271 317.009 57.3376 317.117 57.1752 317.225L55.0636 318.525L55.8758 320.311C55.8216 320.582 55.7945 320.853 55.7945 321.124C55.7945 324.86 57.9873 329.164 60.6674 330.788C60.8298 330.951 61.0193 331.059 61.2359 331.113C61.4796 331.763 61.7232 332.331 61.7232 332.331L63.6724 331.194C63.7265 331.14 63.7807 331.113 63.8348 331.113L63.916 331.032C64.8906 330.382 65.4591 329.001 65.4591 327.052C65.4591 323.316 63.3475 319.012 60.6674 317.307Z" fill="#2A2184"/>
<path d="M63.1041 328.515C63.1041 332.169 60.9113 333.875 58.2312 332.251C55.5511 330.626 53.3583 326.322 53.3583 322.586C53.3583 318.85 55.5511 317.145 58.2312 318.769C60.9113 320.393 63.1041 324.779 63.1041 328.515Z" fill="#4B42AF"/>
<path d="M60.5052 326.89C60.5052 328.677 59.5307 329.489 58.2312 328.758C56.9318 327.946 55.876 325.915 55.876 324.129C55.876 322.342 56.9318 321.53 58.2312 322.342C59.5307 323.073 60.5052 325.184 60.5052 326.89Z" fill="#2A2184"/>
<path d="M108.747 341.591C107.691 340.941 106.635 340.86 105.904 341.185H105.823C105.66 341.293 105.498 341.401 105.335 341.51L103.143 342.809L103.955 344.596C103.901 344.866 103.874 345.137 103.874 345.408C103.874 349.144 106.066 353.448 108.747 355.072C108.963 355.235 109.153 355.343 109.315 355.397C109.559 356.047 109.802 356.615 109.802 356.615L111.833 355.478C111.833 355.424 111.86 355.397 111.914 355.397L111.995 355.316C112.97 354.666 113.619 353.286 113.619 351.336C113.619 347.601 111.427 343.215 108.747 341.591Z" fill="#15327D"/>
<path d="M111.183 352.719C111.183 356.454 108.99 358.16 106.31 356.536C103.63 354.911 101.437 350.526 101.437 346.871C101.437 343.135 103.63 341.43 106.31 343.054C108.99 344.678 111.183 349.064 111.183 352.719Z" fill="url(#paint69_radial_0_74)"/>
<path d="M108.665 351.175C108.665 352.962 107.61 353.774 106.31 353.043C105.011 352.231 104.036 350.201 104.036 348.414C104.036 346.627 105.011 345.815 106.31 346.627C107.61 347.358 108.665 349.47 108.665 351.175Z" fill="#2A2184"/>
<path d="M111.02 344.596L108.746 351.174C108.097 353.123 105.66 351.743 105.335 349.793L103.711 340.616L111.02 344.596Z" fill="#1D45AB"/>
<path d="M110.371 344.596L108.097 351.174C107.447 353.123 105.011 351.743 104.767 349.793L103.062 340.616L110.371 344.596Z" fill="#15327D"/>
<path d="M106.96 350.443C106.96 351.012 106.716 351.174 106.31 351.012C105.985 350.768 105.66 350.199 105.66 349.712C105.66 349.144 105.985 348.981 106.31 349.144C106.716 349.387 106.96 349.956 106.96 350.443Z" fill="#0F2559"/>
<path d="M63.0226 319.905L60.7486 326.403C60.0989 328.352 57.6624 327.052 57.3375 325.022L55.7132 315.926L63.0226 319.905Z" fill="#1D45AB"/>
<path d="M62.373 319.905L60.099 326.403C59.4493 328.352 57.0129 327.052 56.688 325.022L55.0637 315.926L62.373 319.905Z" fill="#15327D"/>
<path d="M58.9618 325.752C58.9618 326.24 58.7182 326.483 58.3121 326.24C57.9872 325.996 57.6623 325.428 57.6623 324.94C57.6623 324.453 57.9872 324.209 58.3121 324.453C58.7182 324.615 58.9618 325.265 58.9618 325.752Z" fill="#0F2559"/>
<path d="M92.8288 371.56C89.9862 371.56 87.1437 370.91 84.5448 369.449L22.1717 335.501C21.6032 335.257 21.1972 334.77 20.9535 334.201L13.6442 310.893C13.1569 309.674 12.1823 308.619 13.3193 307.969L30.5369 297.898C31.7551 297.167 33.2982 297.654 34.0291 298.873C34.76 300.091 34.354 301.634 33.1358 302.365L17.7861 311.38L25.5015 331.44L87.0625 364.9C90.7171 366.931 95.184 366.931 98.8386 364.819L113.051 356.779C114.351 356.048 115.163 354.667 115.163 353.206C115.163 351.662 114.432 350.363 113.132 349.551L56.282 316.09C55.0638 315.359 54.6577 313.816 55.3886 312.598C56.1196 311.38 57.6626 310.893 58.8809 311.623L115.731 345.084C118.655 346.871 120.361 349.876 120.361 353.206C120.279 356.617 118.574 359.621 115.65 361.246L101.356 369.367C98.6762 370.829 95.7525 371.56 92.8288 371.56Z" fill="#15327D"/>
<path d="M92.8288 368.473C89.9862 368.473 87.1437 367.742 84.5448 366.362L22.659 332.739C22.1717 332.495 21.7656 332.008 21.522 331.439L14.6187 307.806C14.1314 306.588 12.1823 305.451 13.3193 304.801L30.5369 294.73C31.7551 294.081 33.2982 294.487 34.0291 295.705C34.76 296.923 34.354 298.547 33.1358 299.197L20.2226 307.968L25.5015 328.272L87.0625 361.814C90.7171 363.763 95.184 363.763 98.8386 361.651L113.051 353.611C114.351 352.88 115.163 351.499 115.163 350.038C115.163 348.495 114.432 347.195 113.132 346.464L56.282 312.922C55.0638 312.273 54.6577 310.648 55.3886 309.43C56.1196 308.212 57.6626 307.806 58.8809 308.537L115.731 341.997C118.655 343.703 120.361 346.708 120.361 350.038C120.279 353.449 118.574 356.454 115.65 358.078L101.356 366.199C98.6762 367.661 95.7525 368.473 92.8288 368.473Z" fill="#1D45AB"/>
<path d="M16.0806 270.69L8.04027 254.609" stroke="#1D45AB" stroke-width="4.54804" stroke-linecap="round" stroke-linejoin="round"/>
<path d="M50.5156 251.037L42.5566 234.956" stroke="#1D45AB" stroke-width="4.54804" stroke-linecap="round" stroke-linejoin="round"/>
<path d="M49.2975 232.52C49.2975 230.977 48.4041 229.19 47.2671 228.459C46.861 228.215 46.455 228.134 46.1301 228.296L45.9677 228.378C45.9677 228.378 45.9406 228.405 45.8864 228.459L0.730949 254.935L3.65467 260.458L48.4041 234.306C48.9726 234.144 49.2975 233.494 49.2975 232.52Z" fill="url(#paint70_linear_0_74)"/>
<path d="M3.97952 259.158C3.97952 260.701 3.08616 261.351 1.94915 260.701C0.893354 259.97 -3.00407e-05 258.183 -3.00407e-05 256.64C-3.00407e-05 255.097 0.893354 254.447 1.94915 255.097C3.08616 255.828 3.97952 257.615 3.97952 259.158Z" fill="#1D45AB"/>
<path d="M57.5812 246.73V285.064L14.6185 310.241V272.07L57.5812 246.73Z" fill="#1D42A8"/>
<path d="M57.5814 285.063L14.6187 310.24L84.8696 344.919L121.904 325.59L57.5814 285.063Z" fill="#15327D"/>
<path d="M57.5814 285.064L121.904 325.59V286.688L57.5814 246.73V285.064Z" fill="#2453CC"/>
<path fill-rule="evenodd" clip-rule="evenodd" d="M57.5812 243.726L9.42078 272.07L84.7071 310.89L127.02 286.688L57.5812 243.726ZM84.7071 307.967L14.6185 272.07L57.5812 246.731L121.903 286.77L84.7071 307.967Z" fill="#2CE6FF"/>
<path d="M9.42047 272.069V313.814L84.8691 352.878L84.7068 310.89L9.42047 272.069Z" fill="#1D42A8"/>
<path d="M9.42047 272.069V313.814L84.8691 352.878L84.7068 310.89L9.42047 272.069Z" fill="url(#paint71_linear_0_74)"/>
<path d="M84.8694 352.879L127.02 328.677V286.688L84.707 310.891L84.8694 352.879Z" fill="#2453CC"/>
<path d="M84.8694 352.879L127.02 328.677V286.688L84.707 310.891L84.8694 352.879Z" fill="url(#paint72_linear_0_74)"/>
<defs>
<radialGradient id="paint0_radial_0_74" cx="0" cy="0" r="1" gradientUnits="userSpaceOnUse" gradientTransform="translate(517.827 88.4442) rotate(180) scale(40.9323 40.9323)">
<stop stop-color="#002659"/>
<stop offset="1" stop-color="#060F37"/>
</radialGradient>
<radialGradient id="paint1_radial_0_74" cx="0" cy="0" r="1" gradientUnits="userSpaceOnUse" gradientTransform="translate(500.609 71.8763) rotate(180) scale(44.0997 44.0997)">
<stop stop-color="#85DC9B"/>
<stop offset="1"/>
</radialGradient>
<radialGradient id="paint2_radial_0_74" cx="0" cy="0" r="1" gradientUnits="userSpaceOnUse" gradientTransform="translate(426.541 276.211) rotate(180) scale(359.295 359.295)">
<stop stop-color="#002659"/>
<stop offset="1" stop-color="#060F37"/>
</radialGradient>
<radialGradient id="paint3_radial_0_74" cx="0" cy="0" r="1" gradientUnits="userSpaceOnUse" gradientTransform="translate(426.541 254.933) rotate(180) scale(359.295 359.295)">
<stop stop-color="#004AB0"/>
<stop offset="1" stop-color="#10268E"/>
</radialGradient>
<radialGradient id="paint4_radial_0_74" cx="0" cy="0" r="1" gradientUnits="userSpaceOnUse" gradientTransform="translate(470.072 310.321) rotate(180) scale(272.801 272.801)">
<stop stop-color="#0EDFFF" stop-opacity="0.909162"/>
<stop offset="1" stop-color="#F6B7FF" stop-opacity="0.31"/>
</radialGradient>
<radialGradient id="paint5_radial_0_74" cx="0" cy="0" r="1" gradientUnits="userSpaceOnUse" gradientTransform="translate(456.509 43.9367) rotate(180) scale(98.7574)">
<stop stop-color="#5C62EB"/>
<stop offset="1" stop-color="#010247"/>
</radialGradient>
<radialGradient id="paint6_radial_0_74" cx="0" cy="0" r="1" gradientUnits="userSpaceOnUse" gradientTransform="translate(256.152 31.6727) rotate(180) scale(275.968 275.968)">
<stop stop-color="#0074FF"/>
<stop offset="1" stop-color="#060070"/>
</radialGradient>
<radialGradient id="paint7_radial_0_74" cx="0" cy="0" r="1" gradientUnits="userSpaceOnUse" gradientTransform="translate(222.691 50.9207) rotate(180) scale(275.968 275.968)">
<stop stop-color="#0EE4FF"/>
<stop offset="1" stop-color="#0723FF" stop-opacity="0"/>
</radialGradient>
<radialGradient id="paint8_radial_0_74" cx="0" cy="0" r="1" gradientUnits="userSpaceOnUse" gradientTransform="translate(203.524 68.7068) rotate(180) scale(255.99 255.99)">
<stop offset="0.282" stop-color="#02F8FF"/>
<stop offset="1" stop-color="#9723FF" stop-opacity="0"/>
</radialGradient>
<radialGradient id="paint9_radial_0_74" cx="0" cy="0" r="1" gradientUnits="userSpaceOnUse" gradientTransform="translate(528.465 -45.6431) rotate(180) scale(285.958 285.958)">
<stop offset="0.282" stop-color="#8F74FF"/>
<stop offset="0.997" stop-color="#734AFF" stop-opacity="0.27"/>
</radialGradient>
<linearGradient id="paint10_linear_0_74" x1="252.984" y1="159.101" x2="358.239" y2="159.101" gradientUnits="userSpaceOnUse">
<stop offset="0.129" stop-color="#971AFF" stop-opacity="0.2"/>
<stop offset="1" stop-color="#3D31ED" stop-opacity="0.7"/>
</linearGradient>
<linearGradient id="paint11_linear_0_74" x1="291.724" y1="-106.555" x2="527.085" y2="182.327" gradientUnits="userSpaceOnUse">
<stop offset="0.129" stop-color="#380A5E" stop-opacity="0.2"/>
<stop offset="1" stop-color="#14104D" stop-opacity="0.7"/>
</linearGradient>
<radialGradient id="paint12_radial_0_74" cx="0" cy="0" r="1" gradientUnits="userSpaceOnUse" gradientTransform="translate(310.566 189.392) rotate(180) scale(178.592 178.592)">
<stop stop-color="#5C62EB"/>
<stop offset="1" stop-color="#010247"/>
</radialGradient>
<radialGradient id="paint13_radial_0_74" cx="0" cy="0" r="1" gradientUnits="userSpaceOnUse" gradientTransform="translate(308.454 275.481) rotate(180) scale(269.552 269.552)">
<stop stop-color="#80FDFE"/>
<stop offset="0.62" stop-color="#80FDFE" stop-opacity="0"/>
</radialGradient>
<linearGradient id="paint14_linear_0_74" x1="493.868" y1="221.798" x2="488.995" y2="51.8148" gradientUnits="userSpaceOnUse">
<stop offset="0.035" stop-color="#5057B9"/>
<stop offset="1" stop-color="#8EAEFF"/>
</linearGradient>
<radialGradient id="paint15_radial_0_74" cx="0" cy="0" r="1" gradientUnits="userSpaceOnUse" gradientTransform="translate(359.295 162.593) rotate(180) scale(35.9782 35.9782)">
<stop stop-color="#000F78"/>
<stop offset="1" stop-color="#0E0A56"/>
</radialGradient>
<radialGradient id="paint16_radial_0_74" cx="0" cy="0" r="1" gradientUnits="userSpaceOnUse" gradientTransform="translate(392.918 85.6826) rotate(180) scale(103.387 103.387)">
<stop stop-color="#5969DE"/>
<stop offset="1" stop-color="#0E0A56"/>
</radialGradient>
<linearGradient id="paint17_linear_0_74" x1="338.26" y1="8.60825" x2="338.991" y2="177.048" gradientUnits="userSpaceOnUse">
<stop offset="0.035" stop-color="#5057B9"/>
<stop offset="1" stop-color="#8EAEFF"/>
</linearGradient>
<radialGradient id="paint18_radial_0_74" cx="0" cy="0" r="1" gradientUnits="userSpaceOnUse" gradientTransform="translate(277.836 187.281) rotate(180) scale(29.9683 29.9683)">
<stop stop-color="#000F78"/>
<stop offset="1" stop-color="#0E0A56"/>
</radialGradient>
<radialGradient id="paint19_radial_0_74" cx="0" cy="0" r="1" gradientUnits="userSpaceOnUse" gradientTransform="translate(264.03 190.693) rotate(180) scale(24.6892 24.6894)">
<stop stop-color="#000F78"/>
<stop offset="1" stop-color="#0E0A56"/>
</radialGradient>
<linearGradient id="paint20_linear_0_74" x1="305.53" y1="72.4443" x2="195.159" y2="72.4443" gradientUnits="userSpaceOnUse">
<stop offset="0.035" stop-color="#5057B9"/>
<stop offset="1" stop-color="#8EAEFF"/>
</linearGradient>
<radialGradient id="paint21_radial_0_74" cx="0" cy="0" r="1" gradientUnits="userSpaceOnUse" gradientTransform="translate(227.077 147.324) rotate(180) scale(29.6435 29.6435)">
<stop stop-color="#000F78"/>
<stop offset="1" stop-color="#0E0A56"/>
</radialGradient>
<radialGradient id="paint22_radial_0_74" cx="0" cy="0" r="1" gradientUnits="userSpaceOnUse" gradientTransform="translate(249.899 122.716) rotate(180) scale(99.3261 99.3259)">
<stop stop-color="#5969DE"/>
<stop offset="1" stop-color="#0E0A56"/>
</radialGradient>
<radialGradient id="paint23_radial_0_74" cx="0" cy="0" r="1" gradientUnits="userSpaceOnUse" gradientTransform="translate(236.173 -66.8399) rotate(180) scale(320.637 320.637)">
<stop stop-color="#94A0F7"/>
<stop offset="1" stop-color="#0E0A56"/>
</radialGradient>
<linearGradient id="paint24_linear_0_74" x1="405.425" y1="8.93359" x2="202.631" y2="8.93359" gradientUnits="userSpaceOnUse">
<stop offset="0.035" stop-color="#5057B9"/>
<stop offset="1" stop-color="#8EAEFF"/>
</linearGradient>
<linearGradient id="paint25_linear_0_74" x1="405.425" y1="8.93359" x2="305.205" y2="8.93359" gradientUnits="userSpaceOnUse">
<stop offset="0.035" stop-color="#5057B9"/>
<stop offset="1" stop-color="#8EAEFF"/>
</linearGradient>
<linearGradient id="paint26_linear_0_74" x1="305.206" y1="8.93359" x2="202.631" y2="8.93359" gradientUnits="userSpaceOnUse">
<stop offset="0.035" stop-color="#5057B9"/>
<stop offset="1" stop-color="#8EAEFF"/>
</linearGradient>
<linearGradient id="paint27_linear_0_74" x1="343.864" y1="141.234" x2="339.235" y2="97.5406" gradientUnits="userSpaceOnUse">
<stop offset="0.035" stop-color="#5057B9"/>
<stop offset="1" stop-color="#8EAEFF"/>
</linearGradient>
<linearGradient id="paint28_linear_0_74" x1="305.531" y1="67.6523" x2="168.521" y2="67.6523" gradientUnits="userSpaceOnUse">
<stop offset="0.035" stop-color="#5057B9"/>
<stop offset="1" stop-color="#8EAEFF"/>
</linearGradient>
<linearGradient id="paint29_linear_0_74" x1="286.201" y1="193.454" x2="284.821" y2="117.68" gradientUnits="userSpaceOnUse">
<stop offset="0.035" stop-color="#5057B9"/>
<stop offset="1" stop-color="#8EAEFF"/>
</linearGradient>
<linearGradient id="paint30_linear_0_74" x1="267.441" y1="166.329" x2="267.197" y2="131" gradientUnits="userSpaceOnUse">
<stop offset="0.035" stop-color="#5057B9"/>
<stop offset="1" stop-color="#8EAEFF"/>
</linearGradient>
<linearGradient id="paint31_linear_0_74" x1="247.624" y1="161.049" x2="254.04" y2="116.138" gradientUnits="userSpaceOnUse">
<stop offset="0.035" stop-color="#5057B9"/>
<stop offset="1" stop-color="#8EAEFF"/>
</linearGradient>
<linearGradient id="paint32_linear_0_74" x1="230.569" y1="146.35" x2="231.3" y2="117.194" gradientUnits="userSpaceOnUse">
<stop offset="0.035" stop-color="#5057B9"/>
<stop offset="1" stop-color="#8EAEFF"/>
</linearGradient>
<linearGradient id="paint33_linear_0_74" x1="213.027" y1="140.176" x2="212.296" y2="109.802" gradientUnits="userSpaceOnUse">
<stop offset="0.035" stop-color="#5057B9"/>
<stop offset="1" stop-color="#8EAEFF"/>
</linearGradient>
<linearGradient id="paint34_linear_0_74" x1="193.616" y1="128.888" x2="195.078" y2="101.681" gradientUnits="userSpaceOnUse">
<stop offset="0.035" stop-color="#5057B9"/>
<stop offset="1" stop-color="#8EAEFF"/>
</linearGradient>
<radialGradient id="paint35_radial_0_74" cx="0" cy="0" r="1" gradientUnits="userSpaceOnUse" gradientTransform="translate(370.665 353.205) rotate(180) scale(46.6986 46.6986)">
<stop stop-color="#002659"/>
<stop offset="1" stop-color="#060F37"/>
</radialGradient>
<linearGradient id="paint36_linear_0_74" x1="472.265" y1="403.559" x2="468.529" y2="208.318" gradientUnits="userSpaceOnUse">
<stop offset="0.035" stop-color="#5057B9"/>
<stop offset="1" stop-color="#8EAEFF"/>
</linearGradient>
<radialGradient id="paint37_radial_0_74" cx="0" cy="0" r="1" gradientUnits="userSpaceOnUse" gradientTransform="translate(356.29 273.046) rotate(180) scale(30.5368 30.5368)">
<stop stop-color="white"/>
<stop offset="1"/>
</radialGradient>
<radialGradient id="paint38_radial_0_74" cx="0" cy="0" r="1" gradientUnits="userSpaceOnUse" gradientTransform="translate(396.979 403.152) rotate(180) scale(92.4227 92.4226)">
<stop offset="0.005" stop-color="white"/>
<stop offset="1" stop-opacity="0"/>
</radialGradient>
<radialGradient id="paint39_radial_0_74" cx="0" cy="0" r="1" gradientUnits="userSpaceOnUse" gradientTransform="translate(389.263 244.622) rotate(180) scale(124.909 124.909)">
<stop stop-color="#000F78"/>
<stop offset="1" stop-color="#0E0A56"/>
</radialGradient>
<radialGradient id="paint40_radial_0_74" cx="0" cy="0" r="1" gradientUnits="userSpaceOnUse" gradientTransform="translate(360.675 248.764) rotate(180) scale(91.7729 91.773)">
<stop stop-color="#000F78"/>
<stop offset="1" stop-color="#0E0A56"/>
</radialGradient>
<radialGradient id="paint41_radial_0_74" cx="0" cy="0" r="1" gradientUnits="userSpaceOnUse" gradientTransform="translate(334.2 374.89) rotate(180) scale(46.6986 46.6986)">
<stop stop-color="#002659"/>
<stop offset="1" stop-color="#060F37"/>
</radialGradient>
<linearGradient id="paint42_linear_0_74" x1="437.18" y1="424.188" x2="433.444" y2="228.866" gradientUnits="userSpaceOnUse">
<stop stop-color="#36D4F7"/>
<stop offset="1" stop-color="#1EEBFF"/>
</linearGradient>
<radialGradient id="paint43_radial_0_74" cx="0" cy="0" r="1" gradientUnits="userSpaceOnUse" gradientTransform="translate(321.124 293.675) rotate(180) scale(30.5368 30.5368)">
<stop stop-color="white"/>
<stop offset="1"/>
</radialGradient>
<radialGradient id="paint44_radial_0_74" cx="0" cy="0" r="1" gradientUnits="userSpaceOnUse" gradientTransform="translate(361.813 423.701) rotate(180) scale(92.4226 92.4227)">
<stop offset="0.005" stop-color="white"/>
<stop offset="1" stop-opacity="0"/>
</radialGradient>
<radialGradient id="paint45_radial_0_74" cx="0" cy="0" r="1" gradientUnits="userSpaceOnUse" gradientTransform="translate(354.178 265.251) rotate(180) scale(124.909 124.909)">
<stop stop-color="#004E78"/>
<stop offset="1" stop-color="#0A2456"/>
</radialGradient>
<radialGradient id="paint46_radial_0_74" cx="0" cy="0" r="1" gradientUnits="userSpaceOnUse" gradientTransform="translate(325.59 269.312) rotate(180) scale(91.7729 91.7728)">
<stop stop-color="#004E78"/>
<stop offset="1" stop-color="#0A2456"/>
</radialGradient>
<radialGradient id="paint47_radial_0_74" cx="0" cy="0" r="1" gradientUnits="userSpaceOnUse" gradientTransform="translate(492.406 285.632) rotate(180) scale(69.6012 69.6012)">
<stop stop-color="#002659"/>
<stop offset="1" stop-color="#060F37"/>
</radialGradient>
<linearGradient id="paint48_linear_0_74" x1="492.812" y1="296.92" x2="472.915" y2="296.92" gradientUnits="userSpaceOnUse">
<stop offset="0.129" stop-color="#380A5E" stop-opacity="0.2"/>
<stop offset="1" stop-color="#14104D" stop-opacity="0.7"/>
</linearGradient>
<radialGradient id="paint49_radial_0_74" cx="0" cy="0" r="1" gradientUnits="userSpaceOnUse" gradientTransform="translate(482.904 309.752) rotate(180) scale(6.74085 6.74083)">
<stop stop-color="#000F78"/>
<stop offset="1" stop-color="#0E0A56"/>
</radialGradient>
<linearGradient id="paint50_linear_0_74" x1="570.535" y1="252.577" x2="550.637" y2="252.577" gradientUnits="userSpaceOnUse">
<stop offset="0.129" stop-color="#380A5E" stop-opacity="0.2"/>
<stop offset="1" stop-color="#14104D" stop-opacity="0.7"/>
</linearGradient>
<radialGradient id="paint51_radial_0_74" cx="0" cy="0" r="1" gradientUnits="userSpaceOnUse" gradientTransform="translate(560.546 265.408) rotate(180) scale(6.74084 6.74085)">
<stop stop-color="#000F78"/>
<stop offset="1" stop-color="#0E0A56"/>
</radialGradient>
<radialGradient id="paint52_radial_0_74" cx="0" cy="0" r="1" gradientUnits="userSpaceOnUse" gradientTransform="translate(535.125 265.572) rotate(180) scale(37.3589 37.3589)">
<stop stop-color="#004AB0"/>
<stop offset="1" stop-color="#10268E"/>
</radialGradient>
<radialGradient id="paint53_radial_0_74" cx="0" cy="0" r="1" gradientUnits="userSpaceOnUse" gradientTransform="translate(588.159 169.251) rotate(180) scale(152.44 152.44)">
<stop stop-color="#004AB0"/>
<stop offset="1" stop-color="#10268E"/>
</radialGradient>
<linearGradient id="paint54_linear_0_74" x1="577.519" y1="154.063" x2="444.408" y2="154.063" gradientUnits="userSpaceOnUse">
<stop offset="0.035" stop-color="#5057B9"/>
<stop offset="1" stop-color="#8EAEFF"/>
</linearGradient>
<linearGradient id="paint55_linear_0_74" x1="577.519" y1="181.92" x2="492.731" y2="181.92" gradientUnits="userSpaceOnUse">
<stop offset="0.035" stop-color="#5057B9"/>
<stop offset="1" stop-color="#8EAEFF"/>
</linearGradient>
<radialGradient id="paint56_radial_0_74" cx="0" cy="0" r="1" gradientUnits="userSpaceOnUse" gradientTransform="translate(409.161 230.73) rotate(180) scale(92.0978 92.0977)">
<stop stop-color="#004AB0"/>
<stop offset="1" stop-color="#10268E"/>
</radialGradient>
<radialGradient id="paint57_radial_0_74" cx="0" cy="0" r="1" gradientUnits="userSpaceOnUse" gradientTransform="translate(438.317 262.405) rotate(180) scale(30.8617 30.8617)">
<stop stop-color="#004AB0"/>
<stop offset="1" stop-color="#10268E"/>
</radialGradient>
<radialGradient id="paint58_radial_0_74" cx="0" cy="0" r="1" gradientUnits="userSpaceOnUse" gradientTransform="translate(452.042 269.389) rotate(180) scale(67.246 67.2461)">
<stop offset="0.282" stop-color="#02F8FF"/>
<stop offset="1" stop-color="#9723FF" stop-opacity="0"/>
</radialGradient>
<linearGradient id="paint59_linear_0_74" x1="440.835" y1="288.638" x2="423.13" y2="288.638" gradientUnits="userSpaceOnUse">
<stop offset="0.129" stop-color="#380A5E" stop-opacity="0.2"/>
<stop offset="1" stop-color="#14104D" stop-opacity="0.7"/>
</linearGradient>
<radialGradient id="paint60_radial_0_74" cx="0" cy="0" r="1" gradientUnits="userSpaceOnUse" gradientTransform="translate(412.247 257.694) rotate(180) scale(57.0941 57.0941)">
<stop offset="0.282" stop-color="#02F8FF"/>
<stop offset="1" stop-color="#9723FF" stop-opacity="0"/>
</radialGradient>
<radialGradient id="paint61_radial_0_74" cx="0" cy="0" r="1" gradientUnits="userSpaceOnUse" gradientTransform="translate(474.62 283.439) rotate(180) scale(30.0495 30.0495)">
<stop stop-color="#004AB0"/>
<stop offset="1" stop-color="#10268E"/>
</radialGradient>
<linearGradient id="paint62_linear_0_74" x1="492.731" y1="217.006" x2="420.206" y2="217.006" gradientUnits="userSpaceOnUse">
<stop offset="0.035" stop-color="#00F2FF"/>
<stop offset="1" stop-color="#2FEDFF"/>
</linearGradient>
<radialGradient id="paint63_radial_0_74" cx="0" cy="0" r="1" gradientUnits="userSpaceOnUse" gradientTransform="translate(-nan -nan) rotate(-nan) scale(-nan -nan)">
<stop stop-color="#000F78"/>
<stop offset="1" stop-color="#0E0A56"/>
</radialGradient>
<radialGradient id="paint64_radial_0_74" cx="0" cy="0" r="1" gradientUnits="userSpaceOnUse" gradientTransform="translate(-nan -nan) rotate(-nan) scale(-nan -nan)">
<stop stop-color="#000F78"/>
<stop offset="1" stop-color="#0E0A56"/>
</radialGradient>
<radialGradient id="paint65_radial_0_74" cx="0" cy="0" r="1" gradientUnits="userSpaceOnUse" gradientTransform="translate(467.798 291.886) rotate(180) scale(2.11159 2.1116)">
<stop stop-color="#000F78"/>
<stop offset="1" stop-color="#0E0A56"/>
</radialGradient>
<radialGradient id="paint66_radial_0_74" cx="0" cy="0" r="1" gradientUnits="userSpaceOnUse" gradientTransform="translate(63.3475 350.768) rotate(180) scale(49.7848 49.7848)">
<stop stop-color="#002659"/>
<stop offset="1" stop-color="#060F37"/>
</radialGradient>
<radialGradient id="paint67_radial_0_74" cx="0" cy="0" r="1" gradientUnits="userSpaceOnUse" gradientTransform="translate(14.2127 320.315) rotate(180) scale(46.6987 46.6987)">
<stop offset="0.282" stop-color="#02F8FF"/>
<stop offset="1" stop-color="#9723FF" stop-opacity="0"/>
</radialGradient>
<radialGradient id="paint68_radial_0_74" cx="0" cy="0" r="1" gradientUnits="userSpaceOnUse" gradientTransform="translate(62.1295 341.509) rotate(180) scale(49.4599 49.4599)">
<stop offset="0.282" stop-color="#02F8FF"/>
<stop offset="1" stop-color="#9723FF" stop-opacity="0"/>
</radialGradient>
<radialGradient id="paint69_radial_0_74" cx="0" cy="0" r="1" gradientUnits="userSpaceOnUse" gradientTransform="translate(101.112 326.567) rotate(180) scale(39.0644 39.0644)">
<stop offset="0.282" stop-color="#02F8FF"/>
<stop offset="1" stop-color="#9723FF" stop-opacity="0"/>
</radialGradient>
<linearGradient id="paint70_linear_0_74" x1="21.6032" y1="277.188" x2="-2.11162" y2="222.774" gradientUnits="userSpaceOnUse">
<stop offset="0.035" stop-color="#5057B9"/>
<stop offset="1" stop-color="#8EAEFF"/>
</linearGradient>
<linearGradient id="paint71_linear_0_74" x1="9.42047" y1="272.069" x2="84.8691" y2="272.069" gradientUnits="userSpaceOnUse">
<stop offset="0.035" stop-color="#5057B9"/>
<stop offset="1" stop-color="#8EAEFF"/>
</linearGradient>
<linearGradient id="paint72_linear_0_74" x1="49.541" y1="348.574" x2="57.0128" y2="247.543" gradientUnits="userSpaceOnUse">
<stop offset="0.035" stop-color="#5057B9"/>
<stop offset="1" stop-color="#8EAEFF"/>
</linearGradient>
</defs>
</svg>
