<svg width="146" height="26" viewBox="0 0 146 26" fill="none" xmlns="http://www.w3.org/2000/svg">
<path d="M145.54 21.8706C145.222 22.3927 144.873 22.8949 144.497 23.3741C143.804 24.2563 143.017 25.0615 142.151 25.7745C140.81 25.5131 139.548 25.0315 138.402 24.369C136.609 25.4062 134.528 26 132.308 26C129.185 26 126.337 24.826 124.181 22.8949C123.166 21.9875 122.304 20.9115 121.64 19.7116C120.671 17.9632 120.119 15.9516 120.119 13.8109C120.119 11.6701 120.671 9.65853 121.64 7.91009C122.304 6.7102 123.166 5.63424 124.181 4.72684C126.337 2.79575 129.185 1.6217 132.308 1.6217C134.528 1.6217 136.609 2.21548 138.402 3.25268C139.701 4.00385 140.848 4.9876 141.786 6.14755C142.485 7.00973 143.067 7.96941 143.511 9.0025C144.146 10.4778 144.497 12.1029 144.497 13.8109C144.497 15.5188 144.146 17.1439 143.511 18.6192C142.031 18.3179 140.793 17.3494 140.124 16.0415C140.326 15.3326 140.434 14.5843 140.434 13.8109C140.434 13.0374 140.326 12.2891 140.124 11.5802C139.788 10.4009 139.192 9.33081 138.402 8.43633C137.497 7.4097 136.335 6.61388 135.018 6.14755C134.17 5.84802 133.258 5.68475 132.308 5.68475C130.144 5.68475 128.177 6.53107 126.721 7.91009C125.157 9.39071 124.182 11.4868 124.182 13.8109C124.182 16.1349 125.157 18.231 126.721 19.7116C128.177 21.0906 130.144 21.937 132.308 21.937C133.258 21.937 134.17 21.7737 135.018 21.4742C134.32 20.612 133.737 19.6523 133.293 18.6192C134.774 18.3179 136.012 17.3488 136.681 16.0409C137.016 17.2202 137.612 18.2903 138.402 19.1854C139.308 20.212 140.469 21.0078 141.786 21.4742C142.634 21.7737 143.547 21.937 144.497 21.937C144.85 21.937 145.199 21.9146 145.54 21.8706Z" fill="#01579B"/>
<path d="M12.2371 24.5007C8.69594 24.5007 5.77115 23.3241 3.46269 20.9708C1.15423 18.6175 0 15.7151 0 12.2636C0 8.78975 1.15423 5.88737 3.46269 3.5565C5.77115 1.20321 8.69594 0.0265691 12.2371 0.0265691C14.3662 0.0265691 16.3273 0.530844 18.1203 1.53939C19.9357 2.52553 21.3476 3.87027 22.3562 5.5736L18.3556 7.89326C17.7729 6.83989 16.9436 6.02184 15.8679 5.43912C14.7921 4.83399 13.5818 4.53143 12.2371 4.53143C9.95103 4.53143 8.10202 5.24862 6.69005 6.683C5.30049 8.11738 4.60571 9.9776 4.60571 12.2636C4.60571 14.5273 5.30049 16.3763 6.69005 17.8107C8.10202 19.2451 9.95103 19.9622 12.2371 19.9622C13.5818 19.9622 14.7921 19.6709 15.8679 19.0882C16.9661 18.483 17.7953 17.665 18.3556 16.634L22.3562 18.9537C21.3476 20.657 19.9469 22.013 18.1539 23.0215C16.3609 24.0077 14.3887 24.5007 12.2371 24.5007Z" fill="#01579B"/>
<path d="M29.6038 10.1121C30.0073 9.03629 30.6684 8.22945 31.5873 7.69155C32.5286 7.15366 33.5708 6.88471 34.7138 6.88471V11.7258C33.3915 11.5689 32.2037 11.8378 31.1503 12.5326C30.1193 13.2274 29.6038 14.3816 29.6038 15.9953V24.0301H25.2671V7.2209H29.6038V10.1121Z" fill="#01579B"/>
<path d="M49.4014 7.2209H53.7381V24.0301H49.4014V22.0466C48.1015 23.6827 46.2749 24.5007 43.9216 24.5007C41.6804 24.5007 39.7529 23.6491 38.1392 21.9457C36.548 20.22 35.7523 18.1132 35.7523 15.6255C35.7523 13.1377 36.548 11.0422 38.1392 9.33885C39.7529 7.61311 41.6804 6.75024 43.9216 6.75024C46.2749 6.75024 48.1015 7.56828 49.4014 9.20438V7.2209ZM41.4002 19.0546C42.2743 19.9286 43.3837 20.3657 44.7284 20.3657C46.0731 20.3657 47.1826 19.9286 48.0566 19.0546C48.9531 18.1581 49.4014 17.015 49.4014 15.6255C49.4014 14.2359 48.9531 13.1041 48.0566 12.23C47.1826 11.3335 46.0731 10.8853 44.7284 10.8853C43.3837 10.8853 42.2743 11.3335 41.4002 12.23C40.5261 13.1041 40.0891 14.2359 40.0891 15.6255C40.0891 17.015 40.5261 18.1581 41.4002 19.0546Z" fill="#01579B"/>
<path d="M66.714 4.19524C64.3383 4.01595 63.1505 4.96847 63.1505 7.0528V7.2209H66.714V11.3896H63.1505V24.0301H58.8137V11.3896H56.3932V7.2209H58.8137V7.0528C58.8137 4.67711 59.4749 2.87292 60.7972 1.64025C62.1195 0.407578 64.0918 -0.130316 66.714 0.0265691V4.19524Z" fill="#01579B"/>
<path d="M78.8418 11.3896H75.043V18.3822C75.043 18.9649 75.1886 19.3907 75.48 19.6597C75.7714 19.9286 76.1972 20.0855 76.7575 20.1303C77.3178 20.1528 78.0126 20.1415 78.8418 20.0967V24.0301C75.861 24.3662 73.7543 24.0861 72.5216 23.1896C71.3113 22.2931 70.7062 20.6906 70.7062 18.3822V11.3896H67.7814V7.2209H70.7062V3.82544L75.043 2.51433V7.2209H78.8418V11.3896Z" fill="#01579B"/>
<path d="M85.0386 17.4073C85.6214 19.514 87.2014 20.5674 89.7788 20.5674C91.4373 20.5674 92.6924 20.0071 93.5441 18.8865L97.0404 20.9036C95.3819 23.3017 92.9389 24.5007 89.7116 24.5007C86.9325 24.5007 84.7025 23.6603 83.0215 21.9793C81.3406 20.2984 80.5002 18.1805 80.5002 15.6255C80.5002 13.0929 81.3294 10.9861 82.9879 9.30523C84.6464 7.6019 86.7756 6.75024 89.3754 6.75024C91.8408 6.75024 93.8691 7.6019 95.4603 9.30523C97.074 11.0086 97.8809 13.1153 97.8809 15.6255C97.8809 16.1858 97.8248 16.7797 97.7128 17.4073H85.0386ZM84.9714 14.0454H93.5441C93.2976 12.9024 92.7821 12.0507 91.9976 11.4904C91.2356 10.9301 90.3615 10.65 89.3754 10.65C88.21 10.65 87.2462 10.9525 86.4842 11.5577C85.7222 12.1404 85.2179 12.9696 84.9714 14.0454Z" fill="#01579B"/>
<path d="M113.518 0.497226H117.855V24.0301H113.518V22.0466C112.241 23.6827 110.425 24.5007 108.072 24.5007C105.809 24.5007 103.87 23.6491 102.256 21.9457C100.665 20.22 99.8693 18.1132 99.8693 15.6255C99.8693 13.1377 100.665 11.0422 102.256 9.33885C103.87 7.61311 105.809 6.75024 108.072 6.75024C110.425 6.75024 112.241 7.56828 113.518 9.20438V0.497226ZM105.517 19.0546C106.414 19.9286 107.534 20.3657 108.879 20.3657C110.224 20.3657 111.333 19.9286 112.207 19.0546C113.081 18.1581 113.518 17.015 113.518 15.6255C113.518 14.2359 113.081 13.1041 112.207 12.23C111.333 11.3335 110.224 10.8853 108.879 10.8853C107.534 10.8853 106.414 11.3335 105.517 12.23C104.643 13.1041 104.206 14.2359 104.206 15.6255C104.206 17.015 104.643 18.1581 105.517 19.0546Z" fill="#01579B"/>
</svg>
